<svg width="179" height="48" viewBox="0 0 179 48" fill="none" xmlns="http://www.w3.org/2000/svg">
<rect x="0.375" width="178" height="48" rx="10" fill="#212121"/>
<path d="M38.0881 22.2464C38.0483 21.8454 37.8776 21.5339 37.576 21.3118C37.2744 21.0897 36.8651 20.9787 36.348 20.9787C35.9967 20.9787 35.7 21.0284 35.4581 21.1278C35.2161 21.224 35.0305 21.3582 34.9013 21.5305C34.7753 21.7029 34.7124 21.8984 34.7124 22.1172C34.7057 22.2995 34.7438 22.4586 34.8267 22.5945C34.9129 22.7304 35.0305 22.848 35.1797 22.9474C35.3288 23.0436 35.5012 23.1281 35.6967 23.201C35.8923 23.2706 36.1011 23.3303 36.3232 23.38L37.2379 23.5987C37.6821 23.6982 38.0897 23.8307 38.4609 23.9964C38.8321 24.1622 39.1536 24.366 39.4254 24.608C39.6972 24.8499 39.9077 25.1349 40.0568 25.4631C40.2093 25.7912 40.2872 26.1674 40.2905 26.5916C40.2872 27.2147 40.1281 27.755 39.8132 28.2124C39.5017 28.6664 39.0509 29.0194 38.4609 29.2713C37.8743 29.5199 37.1667 29.6442 36.3381 29.6442C35.5161 29.6442 34.8002 29.5182 34.1903 29.2663C33.5838 29.0144 33.1098 28.6416 32.7685 28.1477C32.4304 27.6506 32.2531 27.0357 32.2365 26.3033H34.3196C34.3428 26.6446 34.4406 26.9297 34.6129 27.1584C34.7886 27.3838 35.0223 27.5545 35.3139 27.6705C35.6089 27.7831 35.942 27.8395 36.3132 27.8395C36.6778 27.8395 36.9943 27.7865 37.2628 27.6804C37.5346 27.5743 37.745 27.4268 37.8942 27.2379C38.0433 27.049 38.1179 26.8319 38.1179 26.5866C38.1179 26.358 38.05 26.1657 37.9141 26.0099C37.7815 25.8542 37.5859 25.7216 37.3274 25.6122C37.0722 25.5028 36.759 25.4034 36.3878 25.3139L35.2791 25.0355C34.4207 24.8267 33.7429 24.5002 33.2457 24.0561C32.7486 23.612 32.5017 23.0137 32.505 22.2614C32.5017 21.6449 32.6657 21.1063 32.9972 20.6456C33.3319 20.1849 33.791 19.8253 34.3743 19.5668C34.9576 19.3082 35.6205 19.179 36.3629 19.179C37.1186 19.179 37.7782 19.3082 38.3416 19.5668C38.9084 19.8253 39.3492 20.1849 39.6641 20.6456C39.9789 21.1063 40.1413 21.6399 40.1513 22.2464H38.0881ZM45.7605 21.8636V23.4545H41.1618V21.8636H45.7605ZM42.2058 20.0341H44.3237V27.1534C44.3237 27.349 44.3535 27.5014 44.4132 27.6108C44.4728 27.7169 44.5557 27.7914 44.6618 27.8345C44.7711 27.8776 44.8971 27.8991 45.0396 27.8991C45.139 27.8991 45.2385 27.8909 45.3379 27.8743C45.4373 27.8544 45.5136 27.8395 45.5666 27.8295L45.8997 29.4055C45.7936 29.4387 45.6445 29.4768 45.4522 29.5199C45.26 29.5663 45.0263 29.5945 44.7512 29.6044C44.2408 29.6243 43.7934 29.5563 43.4089 29.4006C43.0278 29.2448 42.7311 29.0028 42.519 28.6747C42.3069 28.3466 42.2025 27.9323 42.2058 27.4318V20.0341ZM49.3176 29.6442C48.8304 29.6442 48.3962 29.5597 48.0151 29.3906C47.6339 29.2183 47.3323 28.9647 47.1103 28.63C46.8915 28.2919 46.7821 27.871 46.7821 27.3672C46.7821 26.9429 46.86 26.5866 47.0158 26.2983C47.1716 26.0099 47.3837 25.7779 47.6522 25.6023C47.9206 25.4266 48.2256 25.294 48.5669 25.2045C48.9116 25.1151 49.2729 25.0521 49.6507 25.0156C50.0949 24.9692 50.4528 24.9261 50.7246 24.8864C50.9964 24.8433 51.1936 24.7803 51.3162 24.6974C51.4389 24.6146 51.5002 24.492 51.5002 24.3295V24.2997C51.5002 23.9848 51.4007 23.7412 51.2019 23.5689C51.0063 23.3965 50.7279 23.3104 50.3667 23.3104C49.9855 23.3104 49.6822 23.3949 49.4569 23.5639C49.2315 23.7296 49.0823 23.9384 49.0094 24.1903L47.0506 24.0312C47.15 23.5672 47.3456 23.1662 47.6373 22.8281C47.9289 22.4867 48.3051 22.2249 48.7658 22.0426C49.2298 21.857 49.7667 21.7642 50.3766 21.7642C50.8008 21.7642 51.2069 21.8139 51.5946 21.9134C51.9857 22.0128 52.3321 22.1669 52.6337 22.3757C52.9386 22.5845 53.1789 22.853 53.3546 23.1811C53.5302 23.5059 53.6181 23.8954 53.6181 24.3494V29.5H51.6096V28.4411H51.5499C51.4273 28.6797 51.2632 28.8902 51.0577 29.0724C50.8522 29.2514 50.6053 29.3923 50.3169 29.495C50.0286 29.5945 49.6955 29.6442 49.3176 29.6442ZM49.9242 28.1825C50.2357 28.1825 50.5108 28.1212 50.7495 27.9986C50.9881 27.8726 51.1754 27.7036 51.3113 27.4915C51.4471 27.2794 51.5151 27.0391 51.5151 26.7706V25.9602C51.4488 26.0033 51.3577 26.0431 51.2417 26.0795C51.129 26.1127 51.0014 26.1442 50.8588 26.174C50.7163 26.2005 50.5738 26.2254 50.4313 26.2486C50.2888 26.2685 50.1595 26.2867 50.0435 26.3033C49.7949 26.3397 49.5778 26.3977 49.3922 26.4773C49.2066 26.5568 49.0624 26.6645 48.9597 26.8004C48.8569 26.933 48.8056 27.0987 48.8056 27.2976C48.8056 27.5859 48.91 27.8063 49.1188 27.9588C49.3309 28.108 49.5994 28.1825 49.9242 28.1825ZM55.2612 29.5V21.8636H57.3145V23.196H57.394C57.5332 22.7221 57.7669 22.3641 58.095 22.1222C58.4231 21.8769 58.801 21.7543 59.2285 21.7543C59.3346 21.7543 59.4489 21.7609 59.5716 21.7741C59.6942 21.7874 59.8019 21.8056 59.8947 21.8288V23.7081C59.7953 23.6783 59.6577 23.6518 59.4821 23.6286C59.3064 23.6054 59.1457 23.5938 58.9998 23.5938C58.6883 23.5938 58.4099 23.6617 58.1646 23.7976C57.9226 23.9302 57.7304 24.1158 57.5879 24.3544C57.4487 24.593 57.3791 24.8681 57.3791 25.1797V29.5H55.2612ZM65.4343 21.8636V23.4545H60.8356V21.8636H65.4343ZM61.8796 20.0341H63.9975V27.1534C63.9975 27.349 64.0273 27.5014 64.087 27.6108C64.1467 27.7169 64.2295 27.7914 64.3356 27.8345C64.445 27.8776 64.5709 27.8991 64.7134 27.8991C64.8129 27.8991 64.9123 27.8909 65.0117 27.8743C65.1112 27.8544 65.1874 27.8395 65.2404 27.8295L65.5735 29.4055C65.4674 29.4387 65.3183 29.4768 65.1261 29.5199C64.9338 29.5663 64.7002 29.5945 64.4251 29.6044C63.9147 29.6243 63.4672 29.5563 63.0827 29.4006C62.7016 29.2448 62.4049 29.0028 62.1928 28.6747C61.9807 28.3466 61.8763 27.9323 61.8796 27.4318V20.0341ZM74.1159 21.8636V23.4545H69.5172V21.8636H74.1159ZM70.5613 20.0341H72.6792V27.1534C72.6792 27.349 72.709 27.5014 72.7686 27.6108C72.8283 27.7169 72.9112 27.7914 73.0172 27.8345C73.1266 27.8776 73.2525 27.8991 73.3951 27.8991C73.4945 27.8991 73.5939 27.8909 73.6934 27.8743C73.7928 27.8544 73.869 27.8395 73.9221 27.8295L74.2551 29.4055C74.1491 29.4387 73.9999 29.4768 73.8077 29.5199C73.6155 29.5663 73.3818 29.5945 73.1067 29.6044C72.5963 29.6243 72.1489 29.5563 71.7644 29.4006C71.3832 29.2448 71.0866 29.0028 70.8745 28.6747C70.6623 28.3466 70.5579 27.9323 70.5613 27.4318V20.0341ZM77.7775 25.0852V29.5H75.6596V19.3182H77.7179V23.2109H77.8074C77.9797 22.7602 78.2581 22.4072 78.6426 22.152C79.027 21.8935 79.5093 21.7642 80.0893 21.7642C80.6196 21.7642 81.082 21.8802 81.4764 22.1122C81.8741 22.3409 82.1824 22.6707 82.4011 23.1016C82.6232 23.5291 82.7325 24.0412 82.7292 24.6378V29.5H80.6113V25.0156C80.6146 24.545 80.4953 24.1787 80.2534 23.9169C80.0147 23.6551 79.68 23.5241 79.2491 23.5241C78.9608 23.5241 78.7056 23.5855 78.4835 23.7081C78.2647 23.8307 78.0924 24.0097 77.9664 24.245C77.8438 24.477 77.7808 24.7571 77.7775 25.0852ZM87.8761 29.6491C87.0906 29.6491 86.4144 29.4901 85.8477 29.1719C85.2842 28.8504 84.85 28.3963 84.5451 27.8097C84.2402 27.2197 84.0877 26.522 84.0877 25.7166C84.0877 24.9311 84.2402 24.2417 84.5451 23.6484C84.85 23.0552 85.2792 22.5928 85.8327 22.2614C86.3896 21.9299 87.0425 21.7642 87.7915 21.7642C88.2953 21.7642 88.7643 21.8454 89.1985 22.0078C89.636 22.1669 90.0172 22.4072 90.342 22.7287C90.6701 23.0502 90.9253 23.4545 91.1076 23.9418C91.2899 24.4257 91.381 24.9924 91.381 25.642V26.2237H84.9329V24.9112H89.3874C89.3874 24.6063 89.3211 24.3362 89.1886 24.1009C89.056 23.8655 88.872 23.6816 88.6367 23.549C88.4047 23.4131 88.1346 23.3452 87.8263 23.3452C87.5049 23.3452 87.2198 23.4197 86.9712 23.5689C86.726 23.7147 86.5337 23.9119 86.3945 24.1605C86.2553 24.4058 86.1841 24.6792 86.1808 24.9808V26.2287C86.1808 26.6065 86.2504 26.933 86.3896 27.2081C86.5321 27.4832 86.7326 27.6953 86.9911 27.8445C87.2496 27.9936 87.5562 28.0682 87.9109 28.0682C88.1462 28.0682 88.3616 28.035 88.5572 27.9688C88.7527 27.9025 88.9201 27.803 89.0593 27.6705C89.1985 27.5379 89.3046 27.3755 89.3775 27.1832L91.3363 27.3125C91.2369 27.7831 91.033 28.1941 90.7248 28.5455C90.4199 28.8935 90.0254 29.1652 89.5415 29.3608C89.061 29.553 88.5058 29.6491 87.8761 29.6491ZM96.0034 21.8636H98.1213V29.8778C98.1213 30.4678 98.0053 30.9451 97.7733 31.3097C97.5413 31.6742 97.2082 31.9411 96.774 32.1101C96.3431 32.2791 95.8277 32.3636 95.2278 32.3636C95.1549 32.3636 95.0853 32.362 95.019 32.3587C94.9494 32.3587 94.8765 32.357 94.8002 32.3537V30.6982C94.8566 30.7015 94.9063 30.7031 94.9494 30.7031C94.9892 30.7064 95.0323 30.7081 95.0787 30.7081C95.42 30.7081 95.6587 30.6352 95.7946 30.4893C95.9338 30.3468 96.0034 30.1314 96.0034 29.843V21.8636ZM97.0574 20.8793C96.7458 20.8793 96.4773 20.7749 96.252 20.5661C96.0266 20.3539 95.9139 20.1004 95.9139 19.8054C95.9139 19.5137 96.0266 19.2635 96.252 19.0547C96.4773 18.8426 96.7458 18.7365 97.0574 18.7365C97.3755 18.7365 97.6457 18.8426 97.8677 19.0547C98.0931 19.2635 98.2058 19.5137 98.2058 19.8054C98.2058 20.1004 98.0931 20.3539 97.8677 20.5661C97.6457 20.7749 97.3755 20.8793 97.0574 20.8793ZM103.268 29.6491C102.496 29.6491 101.828 29.4851 101.265 29.157C100.704 28.8255 100.272 28.3648 99.967 27.7749C99.6621 27.1816 99.5096 26.4938 99.5096 25.7116C99.5096 24.9228 99.6621 24.2334 99.967 23.6435C100.272 23.0502 100.704 22.5895 101.265 22.2614C101.828 21.9299 102.496 21.7642 103.268 21.7642C104.04 21.7642 104.707 21.9299 105.267 22.2614C105.83 22.5895 106.264 23.0502 106.569 23.6435C106.874 24.2334 107.027 24.9228 107.027 25.7116C107.027 26.4938 106.874 27.1816 106.569 27.7749C106.264 28.3648 105.83 28.8255 105.267 29.157C104.707 29.4851 104.04 29.6491 103.268 29.6491ZM103.278 28.0085C103.629 28.0085 103.923 27.9091 104.158 27.7102C104.393 27.508 104.571 27.233 104.69 26.8849C104.813 26.5369 104.874 26.1409 104.874 25.6967C104.874 25.2526 104.813 24.8565 104.69 24.5085C104.571 24.1605 104.393 23.8854 104.158 23.6832C103.923 23.4811 103.629 23.38 103.278 23.38C102.923 23.38 102.625 23.4811 102.383 23.6832C102.145 23.8854 101.964 24.1605 101.841 24.5085C101.722 24.8565 101.662 25.2526 101.662 25.6967C101.662 26.1409 101.722 26.5369 101.841 26.8849C101.964 27.233 102.145 27.508 102.383 27.7102C102.625 27.9091 102.923 28.0085 103.278 28.0085ZM113.301 26.2486V21.8636H115.419V29.5H113.385V28.1129H113.306C113.133 28.5604 112.847 28.92 112.446 29.1918C112.048 29.4635 111.562 29.5994 110.989 29.5994C110.479 29.5994 110.029 29.4834 109.642 29.2514C109.254 29.0194 108.951 28.6896 108.732 28.2621C108.516 27.8345 108.407 27.3224 108.404 26.7259V21.8636H110.522V26.348C110.525 26.7988 110.646 27.1551 110.885 27.4169C111.123 27.6787 111.443 27.8097 111.844 27.8097C112.099 27.8097 112.338 27.7517 112.56 27.6357C112.782 27.5163 112.961 27.3407 113.097 27.1087C113.236 26.8767 113.304 26.59 113.301 26.2486ZM117.113 29.5V21.8636H119.166V23.196H119.246C119.385 22.7221 119.618 22.3641 119.947 22.1222C120.275 21.8769 120.653 21.7543 121.08 21.7543C121.186 21.7543 121.3 21.7609 121.423 21.7741C121.546 21.7874 121.653 21.8056 121.746 21.8288V23.7081C121.647 23.6783 121.509 23.6518 121.334 23.6286C121.158 23.6054 120.997 23.5938 120.851 23.5938C120.54 23.5938 120.261 23.6617 120.016 23.7976C119.774 23.9302 119.582 24.1158 119.439 24.3544C119.3 24.593 119.231 24.8681 119.231 25.1797V29.5H117.113ZM124.959 25.0852V29.5H122.841V21.8636H124.86V23.2109H124.949C125.118 22.7668 125.402 22.4155 125.799 22.157C126.197 21.8951 126.679 21.7642 127.246 21.7642C127.776 21.7642 128.239 21.8802 128.633 22.1122C129.028 22.3442 129.334 22.6757 129.553 23.1065C129.772 23.5341 129.881 24.0445 129.881 24.6378V29.5H127.763V25.0156C127.766 24.5483 127.647 24.1837 127.405 23.9219C127.163 23.6567 126.83 23.5241 126.406 23.5241C126.121 23.5241 125.869 23.5855 125.65 23.7081C125.435 23.8307 125.266 24.0097 125.143 24.245C125.024 24.477 124.962 24.7571 124.959 25.0852ZM135.03 29.6491C134.245 29.6491 133.569 29.4901 133.002 29.1719C132.439 28.8504 132.004 28.3963 131.699 27.8097C131.394 27.2197 131.242 26.522 131.242 25.7166C131.242 24.9311 131.394 24.2417 131.699 23.6484C132.004 23.0552 132.434 22.5928 132.987 22.2614C133.544 21.9299 134.197 21.7642 134.946 21.7642C135.45 21.7642 135.919 21.8454 136.353 22.0078C136.79 22.1669 137.171 22.4072 137.496 22.7287C137.824 23.0502 138.08 23.4545 138.262 23.9418C138.444 24.4257 138.535 24.9924 138.535 25.642V26.2237H132.087V24.9112H136.542C136.542 24.6063 136.475 24.3362 136.343 24.1009C136.21 23.8655 136.026 23.6816 135.791 23.549C135.559 23.4131 135.289 23.3452 134.981 23.3452C134.659 23.3452 134.374 23.4197 134.126 23.5689C133.88 23.7147 133.688 23.9119 133.549 24.1605C133.41 24.4058 133.338 24.6792 133.335 24.9808V26.2287C133.335 26.6065 133.405 26.933 133.544 27.2081C133.686 27.4832 133.887 27.6953 134.145 27.8445C134.404 27.9936 134.711 28.0682 135.065 28.0682C135.3 28.0682 135.516 28.035 135.711 27.9688C135.907 27.9025 136.074 27.803 136.214 27.6705C136.353 27.5379 136.459 27.3755 136.532 27.1832L138.491 27.3125C138.391 27.7831 138.187 28.1941 137.879 28.5455C137.574 28.8935 137.18 29.1652 136.696 29.3608C136.215 29.553 135.66 29.6491 135.03 29.6491ZM141.02 32.3636C140.751 32.3636 140.5 32.3421 140.264 32.299C140.032 32.2592 139.84 32.2079 139.688 32.1449L140.165 30.5639C140.413 30.6402 140.637 30.6816 140.836 30.6882C141.038 30.6948 141.212 30.6484 141.358 30.549C141.507 30.4496 141.628 30.2805 141.721 30.0419L141.845 29.7188L139.106 21.8636H141.333L142.914 27.4716H142.994L144.589 21.8636H146.832L143.864 30.3253C143.721 30.7363 143.527 31.0942 143.282 31.3991C143.04 31.7074 142.733 31.9444 142.362 32.1101C141.991 32.2791 141.544 32.3636 141.02 32.3636Z" fill="#00FF29"/>
</svg>
