<svg width="165" height="40" viewBox="0 0 165 40" fill="none" xmlns="http://www.w3.org/2000/svg">
<path fill-rule="evenodd" clip-rule="evenodd" d="M40.75 0H0.75V40H40.75V0ZM20.7503 29.8591C26.1953 29.8591 30.6094 25.445 30.6094 19.9999C30.6094 14.5549 26.1953 10.1408 20.7503 10.1408C15.3052 10.1408 10.8911 14.5549 10.8911 19.9999C10.8911 25.445 15.3052 29.8591 20.7503 29.8591Z" fill="#00FF29"/>
<path d="M146.809 25.881C147.285 25.167 147.677 24.502 147.985 23.886C148.307 23.27 148.615 22.556 148.909 21.744C149.903 22.318 151.058 22.766 152.374 23.088C153.69 23.41 154.915 23.571 156.049 23.571C157.211 23.571 158.03 23.473 158.506 23.277C158.982 23.067 159.22 22.843 159.22 22.605C159.22 21.751 157.918 21.324 155.314 21.324C152.458 21.324 150.386 21.03 149.098 20.442C147.81 19.84 147.166 18.874 147.166 17.544C147.166 15.654 147.95 14.261 149.518 13.365C151.086 12.469 153.123 12.021 155.629 12.021C157.085 12.021 158.576 12.21 160.102 12.588C161.642 12.952 163.028 13.456 164.26 14.1C163.854 15.024 163.427 16.151 162.979 17.481C162.895 17.761 162.825 17.971 162.769 18.111C162.055 17.537 160.977 17.061 159.535 16.683C158.093 16.291 156.819 16.095 155.713 16.095C154.383 16.095 153.487 16.186 153.025 16.368C152.563 16.536 152.332 16.788 152.332 17.124C152.332 17.46 152.647 17.733 153.277 17.943C153.921 18.139 154.845 18.237 156.049 18.237C159.017 18.237 161.173 18.58 162.517 19.266C163.861 19.938 164.533 20.974 164.533 22.374C164.533 24.334 163.819 25.748 162.391 26.616C160.963 27.47 158.8 27.897 155.902 27.897C154.348 27.897 152.766 27.729 151.156 27.393C149.546 27.043 148.097 26.539 146.809 25.881Z" fill="black"/>
<path d="M128.248 25.881C128.724 25.167 129.116 24.502 129.424 23.886C129.746 23.27 130.054 22.556 130.348 21.744C131.342 22.318 132.497 22.766 133.813 23.088C135.129 23.41 136.354 23.571 137.488 23.571C138.65 23.571 139.469 23.473 139.945 23.277C140.421 23.067 140.659 22.843 140.659 22.605C140.659 21.751 139.357 21.324 136.753 21.324C133.897 21.324 131.825 21.03 130.537 20.442C129.249 19.84 128.605 18.874 128.605 17.544C128.605 15.654 129.389 14.261 130.957 13.365C132.525 12.469 134.562 12.021 137.068 12.021C138.524 12.021 140.015 12.21 141.541 12.588C143.081 12.952 144.467 13.456 145.699 14.1C145.293 15.024 144.866 16.151 144.418 17.481C144.334 17.761 144.264 17.971 144.208 18.111C143.494 17.537 142.416 17.061 140.974 16.683C139.532 16.291 138.258 16.095 137.152 16.095C135.822 16.095 134.926 16.186 134.464 16.368C134.002 16.536 133.771 16.788 133.771 17.124C133.771 17.46 134.086 17.733 134.716 17.943C135.36 18.139 136.284 18.237 137.488 18.237C140.456 18.237 142.612 18.58 143.956 19.266C145.3 19.938 145.972 20.974 145.972 22.374C145.972 24.334 145.258 25.748 143.83 26.616C142.402 27.47 140.239 27.897 137.341 27.897C135.787 27.897 134.205 27.729 132.595 27.393C130.985 27.043 129.536 26.539 128.248 25.881Z" fill="black"/>
<path d="M126.569 12.441C126.471 14.807 126.422 17.348 126.422 20.064C126.422 22.78 126.471 25.321 126.569 27.687H121.634V21.975H113.906V27.687H108.971C109.083 24.971 109.139 22.43 109.139 20.064C109.139 17.698 109.083 15.157 108.971 12.441H113.906V18.153H121.634V12.441H126.569Z" fill="black"/>
<path d="M98.4005 27.897C95.2365 27.897 92.9055 27.225 91.4075 25.881C89.9095 24.537 89.1605 22.619 89.1605 20.127C89.1605 17.621 89.9095 15.64 91.4075 14.184C92.9055 12.728 95.2365 12 98.4005 12C102.825 12 105.786 13.519 107.284 16.557C106.024 16.991 104.547 17.642 102.853 18.51C102.447 17.726 101.803 17.145 100.921 16.767C100.053 16.389 99.1635 16.2 98.2535 16.2C96.9095 16.2 95.9085 16.557 95.2505 17.271C94.5925 17.971 94.2635 18.839 94.2635 19.875C94.2635 20.995 94.6135 21.912 95.3135 22.626C96.0275 23.326 97.1125 23.676 98.5685 23.676C99.7305 23.676 100.655 23.487 101.341 23.109C102.027 22.717 102.531 22.101 102.853 21.261C104.001 21.877 105.471 22.57 107.263 23.34C106.563 25.034 105.394 26.217 103.756 26.889C102.118 27.561 100.333 27.897 98.4005 27.897Z" fill="black"/>
<path d="M76.7456 23.844C82.0656 23.816 85.9226 23.739 88.3166 23.613C88.2186 24.187 88.1556 24.782 88.1276 25.398C88.1136 26 88.1066 26.763 88.1066 27.687H71.7896C71.9016 24.971 71.9576 22.43 71.9576 20.064C71.9576 17.698 71.9016 15.157 71.7896 12.441H88.1066V16.242H76.7456V18.258C77.4176 18.272 78.4116 18.279 79.7276 18.279C81.9536 18.279 84.2566 18.237 86.6366 18.153V21.765C84.2566 21.681 81.9536 21.639 79.7276 21.639C78.4116 21.639 77.4176 21.646 76.7456 21.66V23.844Z" fill="black"/>
<path d="M69.8901 16.851C67.6921 16.781 65.5571 16.739 63.4851 16.725V27.687H58.2351V16.725C56.1491 16.739 54.0211 16.781 51.8511 16.851V12.441H69.8901V16.851Z" fill="black"/>
</svg>
