<svg xmlns="http://www.w3.org/2000/svg" width="961" height="90" fill="none"><g clip-path="url(#a)"><rect width="237" height="29" x=".4" fill="#fff" rx="14.5"/><path fill="url(#b)" fill-opacity=".1" d="M14.8.5H222a14 14 0 1 1 0 28H14.7a14 14 0 1 1 0-28Z"/><path stroke="url(#c)" d="M14.8.5H222a14 14 0 1 1 0 28H14.7a14 14 0 1 1 0-28Z"/><path stroke="url(#d)" d="M14.8.5H222a14 14 0 1 1 0 28H14.7a14 14 0 1 1 0-28Z"/><g filter="url(#e)"><rect width="29" height="29" x=".3" fill="#00FF29" rx="14.5"/></g><rect width="11" height="11" x="10" y="9" fill="#fff" rx="5.5"/><path fill="#000" d="M42 20V9.8h4c.8 0 1.4.1 2 .4.4.2.8.5 1 .9.3.4.4.8.4 1.3 0 .4 0 .8-.2 1a2 2 0 0 1-.7.8c-.2.2-.6.3-1 .4v.1c.5 0 .8.1 1.2.3.3.2.6.5.8.9.2.4.3.8.3 1.3s-.1 1-.4 1.4c-.2.5-.6.8-1.2 1-.5.3-1.1.4-1.9.4H42Zm2.1-1.8H46c.6 0 1 0 1.3-.3.3-.2.4-.5.4-1 0-.2 0-.5-.2-.7-.1-.2-.3-.4-.6-.5a2 2 0 0 0-.9-.2h-1.8v2.7Zm0-4.1h1.6c.3 0 .6 0 .8-.2.2 0 .4-.2.6-.4l.2-.7c0-.4-.2-.7-.4-.9-.3-.2-.7-.3-1.1-.3H44V14Zm12 2.6v-4.3h2.1V20h-2v-1.4H56c-.2.5-.5.8-.9 1-.4.4-.9.5-1.4.5-.5 0-1-.1-1.4-.3-.4-.3-.7-.6-.9-1-.2-.5-.3-1-.3-1.6v-4.8h2.1v4.4c0 .5.1.9.4 1.1.2.3.5.4 1 .4.2 0 .4 0 .6-.2.3 0 .4-.3.6-.5l.2-.9Zm10.1-2.2-1.9.2a1 1 0 0 0-.2-.5l-.4-.3-.7-.1c-.3 0-.6 0-.8.2-.2.1-.3.3-.3.5s0 .4.2.5l.7.3 1.4.3c.8.1 1.3.4 1.7.7.3.3.5.8.5 1.3s-.1 1-.4 1.4c-.3.3-.7.6-1.2.8-.5.2-1.1.3-1.8.3-1 0-1.8-.2-2.4-.6-.6-.4-1-1-1-1.7l2-.1.5.7 1 .2c.3 0 .6 0 .8-.2.3-.1.4-.3.4-.6l-.3-.4c-.1-.2-.4-.2-.7-.3l-1.3-.3c-.8-.1-1.3-.4-1.7-.8a2 2 0 0 1-.5-1.4c0-.4 0-.9.4-1.2.2-.4.6-.7 1-.8.6-.2 1.1-.3 1.8-.3 1 0 1.7.2 2.3.6.5.4.9 1 1 1.6Zm1.6 5.5v-7.6h2V20h-2Zm1-8.6c-.3 0-.6-.1-.8-.3a1 1 0 0 1-.3-.8c0-.3 0-.5.3-.7.2-.3.5-.4.8-.4.3 0 .6.1.8.4.3.2.4.4.4.7 0 .3-.1.6-.4.8-.2.2-.5.3-.8.3Zm4.9 4.2V20h-2.1v-7.6h2v1.3c.2-.4.5-.8 1-1 .3-.3.8-.4 1.4-.4.5 0 1 0 1.4.3.4.2.7.6.9 1 .2.4.3 1 .3 1.5V20h-2.1v-4.5c0-.5-.1-.8-.4-1-.2-.3-.5-.5-1-.5-.2 0-.5 0-.7.2l-.5.5-.2.9Zm10 4.5a4 4 0 0 1-2-.4c-.5-.3-1-.8-1.3-1.4-.3-.6-.4-1.3-.4-2 0-.9.1-1.6.4-2.2.3-.5.8-1 1.3-1.3.6-.4 1.2-.5 2-.5.5 0 1 0 1.4.2a3.1 3.1 0 0 1 1.9 2c.2.4.3 1 .3 1.6v.6h-6.5v-1.3h4.5c0-.3 0-.6-.2-.8l-.6-.6-.8-.2c-.3 0-.6.1-.8.3-.3.1-.5.3-.6.6-.2.2-.2.5-.2.8v1.2c0 .4 0 .7.2 1 .1.3.3.5.6.6.2.2.5.3.9.3l.6-.1.5-.3.4-.5 2 .1c-.2.5-.4.9-.7 1.2a3 3 0 0 1-1.2.9c-.5.2-1 .2-1.6.2ZM95 14.5l-2 .2a1 1 0 0 0-.2-.5l-.4-.3-.6-.1c-.3 0-.6 0-.8.2-.3.1-.4.3-.4.5s0 .4.2.5l.8.3 1.4.3c.7.1 1.3.4 1.6.7.4.3.6.8.6 1.3s-.2 1-.5 1.4c-.3.3-.7.6-1.2.8-.5.2-1 .3-1.7.3-1 0-1.8-.2-2.4-.6-.6-.4-1-1-1-1.7l2-.1c0 .3.2.5.5.7l.9.2c.4 0 .6 0 .9-.2.2-.1.3-.3.3-.6 0-.1 0-.3-.2-.4-.2-.2-.4-.2-.8-.3l-1.3-.3c-.7-.1-1.3-.4-1.6-.8a2 2 0 0 1-.6-1.4c0-.4.1-.9.4-1.2.3-.4.7-.7 1.1-.8.5-.2 1.1-.3 1.8-.3 1 0 1.7.2 2.2.6.6.4 1 1 1 1.6Zm7.9 0-2 .2a1 1 0 0 0-.2-.5l-.4-.3-.7-.1c-.3 0-.6 0-.8.2-.2.1-.3.3-.3.5s0 .4.2.5l.7.3 1.4.3c.8.1 1.3.4 1.7.7.4.3.5.8.5 1.3s-.1 1-.4 1.4c-.3.3-.7.6-1.2.8-.5.2-1.1.3-1.8.3-1 0-1.8-.2-2.4-.6-.6-.4-1-1-1-1.7l2-.1.5.7 1 .2c.3 0 .6 0 .8-.2.3-.1.4-.3.4-.6l-.3-.4c-.1-.2-.4-.2-.7-.3l-1.3-.3c-.8-.1-1.3-.4-1.7-.8a2 2 0 0 1-.5-1.4c0-.4.1-.9.4-1.2.2-.4.6-.7 1.1-.8.5-.2 1-.3 1.7-.3 1 0 1.7.2 2.3.6.5.4.9 1 1 1.6Zm4.8 5.5V9.8h2v3.8h.1l.4-.6.7-.5c.3-.2.7-.2 1.1-.2a2.9 2.9 0 0 1 2.7 1.7c.3.6.4 1.3.4 2.2a5 5 0 0 1-.4 2.1 2.9 2.9 0 0 1-2.7 1.8c-.4 0-.8 0-1-.2-.3-.1-.6-.3-.7-.5l-.5-.6V20h-2.1Zm2-3.8c0 .4 0 .8.2 1.2.1.3.3.6.6.8l.8.2c.4 0 .7 0 1-.2l.4-.8c.2-.4.2-.8.2-1.2l-.1-1.2-.6-.8c-.2-.2-.5-.3-.9-.3-.3 0-.6.1-.8.3-.3.2-.5.5-.6.8l-.2 1.2Zm6.8 3.8v-7.6h2.1V20h-2Zm1-8.6c-.2 0-.5-.1-.7-.3a1 1 0 0 1-.4-.8c0-.3.1-.5.4-.7.2-.3.5-.4.8-.4.3 0 .6.1.8.4.2.2.3.4.3.7 0 .3 0 .6-.3.8-.2.2-.5.3-.8.3Zm6.3 11.6a5 5 0 0 1-1.8-.3 3 3 0 0 1-1.2-.7c-.3-.3-.4-.7-.5-1.1l2-.3c0 .2 0 .3.2.5l.5.3.8.1c.5 0 .9-.1 1.2-.3.3-.3.4-.6.4-1.2v-1.4a2 2 0 0 1-1.2 1.1l-1 .2c-.6 0-1.2-.1-1.6-.4-.5-.3-.9-.7-1.1-1.2-.3-.6-.5-1.3-.5-2.1 0-.9.2-1.6.5-2.2.2-.6.6-1 1-1.3a3 3 0 0 1 2.7-.2l.7.5.4.6h.1v-1.2h2.1V20c0 .6-.2 1.2-.5 1.6-.3.4-.7.8-1.3 1-.6.2-1.2.3-2 .3Zm0-4.7c.4 0 .6 0 .9-.3.2-.1.4-.4.5-.7.2-.3.2-.7.2-1.1 0-.5 0-.9-.2-1.2l-.5-.8c-.3-.2-.5-.3-.9-.3l-.9.3-.5.8-.2 1.2c0 .4 0 .8.2 1.1.1.3.3.6.5.7.3.2.6.3 1 .3Zm11.4 1.8c-.5 0-1-.1-1.5-.4-.5-.3-.9-.8-1.1-1.4-.3-.5-.5-1.3-.5-2.1 0-.9.2-1.6.5-2.2.2-.6.6-1 1-1.3a2.9 2.9 0 0 1 2.7-.2l.7.5.4.6V9.8h2.2V20h-2.1v-1.2l-.5.6a2 2 0 0 1-.7.5c-.3.2-.7.2-1 .2Zm.7-1.7c.4 0 .6 0 .9-.2l.5-.8c.2-.4.2-.8.2-1.2 0-.5 0-.9-.2-1.2l-.5-.8c-.3-.2-.5-.3-.9-.3l-.9.3-.5.8-.2 1.2c0 .4 0 .8.2 1.2l.5.8 1 .2Zm7.6 1.7c-.5 0-1 0-1.3-.2a2 2 0 0 1-.9-.8c-.2-.3-.3-.7-.3-1.2s0-.8.2-1.1l.6-.7a3 3 0 0 1 1-.4 27.7 27.7 0 0 0 2.8-.5v-.4a1 1 0 0 0-.2-.7c-.2-.2-.5-.3-.8-.3-.4 0-.7 0-1 .3-.2.1-.3.3-.4.6l-2-.2a2.7 2.7 0 0 1 1.8-2l1.6-.2 1.2.1 1 .5a2.2 2.2 0 0 1 1 2V20h-2v-1a2.1 2.1 0 0 1-1.3 1 3 3 0 0 1-1 .1Zm.6-1.4c.3 0 .6 0 .8-.2.3-.1.5-.3.6-.5l.2-.7v-.8h-.3a4.8 4.8 0 0 1-.8.2 101.8 101.8 0 0 0-1 .3 1 1 0 0 0-.5.3l-.1.5c0 .3.1.5.3.7l.8.2Zm9.4-6.3V14H149v-1.6h4.6Zm-3.5-1.9h2v7.2l.2.4.2.2.4.1a1.8 1.8 0 0 0 .5 0l.3 1.5a5.9 5.9 0 0 1-1.1.2c-.5 0-1 0-1.3-.2l-1-.7-.2-1.3v-7.4Zm7 9.6c-.4 0-.9 0-1.2-.2-.4-.2-.7-.4-1-.8-.2-.3-.3-.7-.3-1.2s.1-.8.3-1.1c.1-.3.3-.5.6-.7l1-.4a27.7 27.7 0 0 0 2.7-.5l.1-.4a1 1 0 0 0-.3-.7c-.1-.2-.4-.3-.8-.3s-.7 0-.9.3c-.2.1-.4.3-.4.6l-2-.2a2.7 2.7 0 0 1 1.7-2l1.6-.2 1.2.1 1 .5a2.2 2.2 0 0 1 1 2V20h-2v-1a2.2 2.2 0 0 1-1.2 1 3 3 0 0 1-1 .1Zm.7-1.4c.3 0 .6 0 .8-.2l.6-.5.2-.7v-.8h-.3a5 5 0 0 1-.8.2 136.8 136.8 0 0 0-1 .3 1 1 0 0 0-.5.3l-.1.5c0 .3 0 .5.3.7l.8.2Zm10.7 1.4c-.5 0-.9 0-1.3-.2s-.7-.4-.9-.8c-.2-.3-.3-.7-.3-1.2s0-.8.2-1.1l.7-.7a3 3 0 0 1 .9-.4 27.7 27.7 0 0 0 2.8-.5l.1-.4a1 1 0 0 0-.3-.7c-.2-.2-.5-.3-.8-.3-.4 0-.7 0-1 .3-.2.1-.3.3-.4.6l-2-.2a2.7 2.7 0 0 1 1.8-2l1.6-.2 1.2.1 1 .5a2.2 2.2 0 0 1 1 2V20h-2v-1a2.1 2.1 0 0 1-1.3 1 3 3 0 0 1-1 .1Zm.6-1.4c.3 0 .6 0 .9-.2l.5-.5c.2-.2.2-.5.2-.7v-.8h-.2a5 5 0 0 1-.9.2 101.8 101.8 0 0 0-1 .3 1 1 0 0 0-.4.3l-.2.5c0 .3.1.5.3.7l.8.2Zm7.5-3.1V20h-2.1v-7.6h2v1.3c.2-.4.5-.8 1-1 .3-.3.8-.4 1.4-.4.5 0 1 0 1.4.3.4.2.7.6.9 1 .2.4.3 1 .3 1.5V20h-2.1v-4.5c0-.5-.1-.8-.4-1-.2-.3-.5-.5-1-.5-.3 0-.5 0-.7.2l-.5.5-.2.9Zm8.8 4.5c-.5 0-1 0-1.3-.2a2 2 0 0 1-1-.8c-.2-.3-.3-.7-.3-1.2s.1-.8.3-1.1c.1-.3.3-.5.6-.7a3 3 0 0 1 1-.4 27.7 27.7 0 0 0 2.8-.5v-.4a1 1 0 0 0-.3-.7c-.2-.2-.4-.3-.8-.3s-.7 0-.9.3c-.2.1-.4.3-.5.6l-2-.2a2.7 2.7 0 0 1 1.8-2l1.6-.2 1.2.1 1 .5a2.2 2.2 0 0 1 1 2V20h-2v-1a2.1 2.1 0 0 1-1.2 1 3 3 0 0 1-1 .1Zm.6-1.4c.3 0 .5 0 .8-.2l.6-.5.2-.7v-.8h-.3a5 5 0 0 1-.8.2 101.8 101.8 0 0 0-1 .3 1 1 0 0 0-.5.3l-.2.5c0 .3.1.5.4.7l.8.2Zm7.4-8.9V20h-2.1V9.8h2.1Zm3 13a4.2 4.2 0 0 1-1.3-.2l.5-1.5h1.2l.3-.6.1-.3-2.7-7.8h2.2l1.6 5.6h.1l1.6-5.6h2.2l-3 8.4c0 .4-.3.8-.5 1.1l-1 .7c-.3.2-.8.3-1.3.3Zm13.3-8.3-2 .2a1 1 0 0 0-.2-.5l-.4-.3-.6-.1c-.4 0-.7 0-.9.2-.2.1-.3.3-.3.5s0 .4.2.5l.8.3 1.3.3c.8.1 1.3.4 1.7.7.4.3.5.8.5 1.3s-.1 1-.4 1.4c-.3.3-.7.6-1.2.8-.5.2-1 .3-1.8.3-1 0-1.8-.2-2.4-.6-.6-.4-1-1-1-1.7l2-.1.5.7 1 .2c.3 0 .6 0 .8-.2.3-.1.4-.3.4-.6 0-.1 0-.3-.3-.4-.1-.2-.4-.2-.7-.3l-1.3-.3c-.8-.1-1.3-.4-1.7-.8a2 2 0 0 1-.5-1.4c0-.4.1-.9.4-1.2.3-.4.6-.7 1.1-.8.5-.2 1-.3 1.7-.3 1 0 1.7.2 2.3.6.6.4.9 1 1 1.6ZM211 20v-7.6h2.1V20h-2.1Zm1-8.6c-.3 0-.5-.1-.8-.3a1 1 0 0 1-.3-.8c0-.3.1-.5.3-.7.3-.3.5-.4.8-.4.4 0 .6.1.8.4.3.2.4.4.4.7 0 .3-.1.6-.4.8-.2.2-.4.3-.8.3Zm9.1 3.1-1.9.2a1 1 0 0 0-.2-.5l-.4-.3-.7-.1c-.3 0-.6 0-.8.2-.2.1-.3.3-.3.5s0 .4.2.5l.7.3 1.4.3c.8.1 1.3.4 1.7.7.3.3.5.8.5 1.3s-.1 1-.4 1.4c-.3.3-.7.6-1.2.8-.5.2-1.1.3-1.8.3-1 0-1.8-.2-2.4-.6-.6-.4-1-1-1-1.7l2-.1.5.7 1 .2c.3 0 .6 0 .8-.2.3-.1.4-.3.4-.6l-.3-.4c-.1-.2-.4-.2-.7-.3l-1.3-.3c-.8-.1-1.3-.4-1.7-.8a2 2 0 0 1-.5-1.4c0-.4 0-.9.4-1.2.2-.4.6-.7 1-.8.6-.2 1.1-.3 1.8-.3 1 0 1.7.2 2.3.6.5.4.9 1 1 1.6Z"/></g><g clip-path="url(#f)"><rect width="172" height="29" x="268.3" fill="#fff" rx="14.5"/><path fill="url(#g)" fill-opacity=".1" d="M282.5.5h143.4a14 14 0 1 1 0 28H282.5a14 14 0 1 1 0-28Z"/><path stroke="url(#h)" d="M282.5.5h143.4a14 14 0 1 1 0 28H282.5a14 14 0 1 1 0-28Z"/><path stroke="url(#i)" d="M282.5.5h143.4a14 14 0 1 1 0 28H282.5a14 14 0 1 1 0-28Z"/><g filter="url(#j)"><rect width="29" height="29" x="268" fill="#00FF29" rx="14.5"/></g><rect width="11" height="11" x="277.7" y="9" fill="#fff" rx="5.5"/><path fill="#000" d="M313.3 20h-3.6V9.8h3.7c1 0 1.9.2 2.6.6.7.4 1.3 1 1.7 1.8.4.7.6 1.6.6 2.7 0 1-.2 2-.6 2.7-.4.8-1 1.4-1.7 1.8-.7.4-1.6.6-2.7.6Zm-1.4-1.8h1.3c.7 0 1.2-.2 1.6-.4.5-.2.8-.6 1-1 .3-.5.4-1.1.4-1.9 0-.8-.1-1.4-.4-1.8-.2-.5-.5-.9-1-1.1-.4-.2-1-.3-1.6-.3H312v6.5Zm8 1.8v-7.6h2V20h-2Zm1-8.6c-.3 0-.6-.1-.8-.3a1 1 0 0 1-.3-.8c0-.3.1-.5.3-.7.2-.3.5-.4.8-.4.3 0 .6.1.8.4.3.2.4.4.4.7 0 .3-.1.6-.4.8-.2.2-.5.3-.8.3Zm6.2 11.6a5 5 0 0 1-1.7-.3 3 3 0 0 1-1.2-.7c-.3-.3-.5-.7-.6-1.1l2-.3c0 .2.1.3.3.5l.5.3.8.1c.4 0 .8-.1 1.1-.3.3-.3.5-.6.5-1.2v-1.4h-.1a2 2 0 0 1-1.2 1.1l-1 .2a2.9 2.9 0 0 1-2.7-1.6c-.3-.6-.4-1.3-.4-2.1 0-.9.1-1.6.4-2.2.3-.6.7-1 1.1-1.3a2.9 2.9 0 0 1 2.7-.2l.7.5.4.6v-1.2h2.2V20c0 .6-.2 1.2-.5 1.6-.3.4-.8.8-1.3 1-.6.2-1.2.3-2 .3Zm0-4.7c.4 0 .7 0 1-.3.2-.1.4-.4.5-.7l.2-1.1c0-.5 0-.9-.2-1.2-.1-.3-.3-.6-.6-.8-.2-.2-.5-.3-.8-.3-.4 0-.7.1-1 .3l-.5.8-.1 1.2.1 1.1.6.7c.2.2.5.3.9.3Zm5.4 1.7v-7.6h2.2V20h-2.2Zm1.1-8.6c-.3 0-.6-.1-.8-.3a1 1 0 0 1-.3-.8c0-.3 0-.5.3-.7.2-.3.5-.4.8-.4.3 0 .6.1.8.4.2.2.3.4.3.7 0 .3 0 .6-.3.8-.2.2-.5.3-.8.3Zm6.8 1V14h-4.6v-1.6h4.6Zm-3.5-1.9h2v7.2l.2.4.2.2.4.1a1.8 1.8 0 0 0 .5 0l.4 1.5a5.9 5.9 0 0 1-1.2.2c-.5 0-1 0-1.3-.2l-1-.7-.2-1.3v-7.4Zm7 9.6c-.4 0-.8 0-1.2-.2-.4-.2-.7-.4-1-.8-.2-.3-.3-.7-.3-1.2s.1-.8.3-1.1c.1-.3.3-.5.6-.7l1-.4a27.7 27.7 0 0 0 2.7-.5l.2-.4a1 1 0 0 0-.3-.7c-.2-.2-.5-.3-.9-.3s-.7 0-.9.3c-.2.1-.4.3-.4.6l-2-.2a2.7 2.7 0 0 1 1.7-2l1.6-.2 1.3.1 1 .5a2.2 2.2 0 0 1 1 2V20h-2v-1a2.2 2.2 0 0 1-1.3 1 3 3 0 0 1-1 .1Zm.7-1.4c.3 0 .6 0 .8-.2l.6-.5.2-.7v-.8h-.3a5 5 0 0 1-.8.2 101.8 101.8 0 0 0-1 .3 1 1 0 0 0-.5.3l-.1.5c0 .3 0 .5.3.7l.8.2Zm7.4-8.9V20h-2V9.8h2Zm5 0h2.7l2.8 6.9 2.9-6.9h2.6V20h-2v-6.6h-.1l-2.7 6.6h-1.4l-2.6-6.7h-.1V20h-2V9.8Zm15 10.3c-.5 0-1 0-1.3-.2-.4-.2-.7-.4-1-.8-.2-.3-.3-.7-.3-1.2s.1-.8.3-1.1c.1-.3.3-.5.6-.7a3 3 0 0 1 1-.4 27.7 27.7 0 0 0 2.7-.5l.1-.4a1 1 0 0 0-.3-.7c-.2-.2-.4-.3-.8-.3s-.7 0-.9.3c-.2.1-.4.3-.4.6l-2-.2a2.7 2.7 0 0 1 1.7-2l1.6-.2 1.2.1 1 .5a2.2 2.2 0 0 1 1 2V20h-2v-1a2.1 2.1 0 0 1-1.2 1 3 3 0 0 1-1 .1Zm.6-1.4c.3 0 .6 0 .8-.2l.6-.5.2-.7v-.8h-.3a4.8 4.8 0 0 1-.8.2 101.8 101.8 0 0 0-1 .3 1 1 0 0 0-.5.3l-.2.5c0 .3.2.5.4.7l.8.2Zm5.3 1.3v-7.6h2v1.3h.1c.2-.5.4-.8.7-1 .4-.3.7-.4 1.2-.4a3.2 3.2 0 0 1 .6 0v2l-.4-.2h-.5c-.3 0-.5 0-.8.2a1.5 1.5 0 0 0-.8 1.4V20H378Zm7.7-2.2v-2.5h.3l2.4-3h2.4l-3.2 3.9h-.5l-1.4 1.6Zm-2 2.2V9.8h2.1V20h-2Zm4.8 0-2.2-3.3 1.4-1.5 3.3 4.8h-2.5Zm6.5.1a4 4 0 0 1-2-.4c-.5-.3-1-.8-1.3-1.4-.3-.6-.4-1.3-.4-2 0-.9.1-1.6.4-2.2.3-.5.8-1 1.3-1.3.6-.4 1.2-.5 2-.5.5 0 1 0 1.4.2a3.1 3.1 0 0 1 1.9 2c.2.4.3 1 .3 1.6v.6H392v-1.3h4.5l-.2-.8-.6-.6-.8-.2a1.6 1.6 0 0 0-1.4.9c-.2.2-.2.5-.2.8v1.2c0 .4 0 .7.2 1 .1.3.3.5.6.6.2.2.5.3.9.3l.6-.1.5-.3c.2-.2.3-.3.3-.5l2 .1c0 .5-.3.9-.6 1.2a3 3 0 0 1-1.2.9c-.5.2-1 .2-1.7.2Zm9-7.7V14h-4.6v-1.6h4.6Zm-3.6-1.9h2.2V18.1l.3.2.4.1a1.8 1.8 0 0 0 .5 0l.3 1.5a6 6 0 0 1-1.1.2c-.5 0-1 0-1.4-.2l-.8-.7c-.3-.4-.4-.8-.4-1.3v-7.4Zm5 9.5v-7.6h2V20h-2Zm1-8.6c-.3 0-.5-.1-.8-.3a1 1 0 0 1-.3-.8c0-.3.1-.5.3-.7.3-.3.5-.4.8-.4.4 0 .6.1.8.4.3.2.4.4.4.7 0 .3-.1.6-.4.8-.2.2-.4.3-.8.3Zm5 4.2V20H409v-7.6h2v1.3h.1c.2-.4.4-.8.8-1 .4-.3 1-.4 1.5-.4s1 0 1.4.3c.4.2.7.6.9 1 .2.4.3 1 .3 1.5V20h-2v-4.5c0-.5-.2-.8-.4-1-.3-.3-.6-.5-1-.5-.3 0-.6 0-.8.2l-.5.5-.2.9Zm10 7.4a5 5 0 0 1-1.8-.3 3 3 0 0 1-1.2-.7c-.3-.3-.5-.7-.6-1.1l2-.3a1.3 1.3 0 0 0 .8.8l.8.1c.4 0 .8-.1 1.1-.3.3-.3.5-.6.5-1.2v-1.4h-.1a2 2 0 0 1-1.1 1.1l-1 .2a2.8 2.8 0 0 1-2.7-1.6c-.3-.6-.5-1.3-.5-2.1 0-.9.2-1.6.4-2.2.3-.6.7-1 1.2-1.3a2.9 2.9 0 0 1 2.6-.2l.7.5.4.6v-1.2h2.2V20c0 .6-.2 1.2-.5 1.6-.3.4-.8.8-1.3 1-.6.2-1.2.3-2 .3Zm0-4.7c.3 0 .6 0 .8-.3.3-.1.5-.4.6-.7l.2-1.1c0-.5 0-.9-.2-1.2l-.5-.8c-.3-.2-.6-.3-1-.3-.3 0-.6.1-.8.3l-.5.8c-.2.3-.2.7-.2 1.2 0 .4 0 .8.2 1.1 0 .3.3.6.5.7.2.2.5.3.9.3Z"/></g><g clip-path="url(#k)"><rect width="136" height="29" x="472.3" fill="#fff" rx="14.5"/><path fill="url(#l)" fill-opacity=".1" d="M486.5.5H594a14 14 0 1 1 0 28H486.5a14 14 0 1 1 0-28Z"/><path stroke="url(#m)" d="M486.5.5H594a14 14 0 1 1 0 28H486.5a14 14 0 1 1 0-28Z"/><path stroke="url(#n)" d="M486.5.5H594a14 14 0 1 1 0 28H486.5a14 14 0 1 1 0-28Z"/><g filter="url(#o)"><rect width="29" height="29" x="472" fill="#00FF29" rx="14.5"/></g><rect width="11" height="11" x="481.7" y="9" fill="#fff" rx="5.5"/><path fill="#000" d="m516 20-2.9-10.2h2.4l1.6 7h.1l1.9-7h2l1.8 7.1h.1l1.7-7h2.4L524 20h-2l-2-6.7-2 6.7h-2Zm14.8.1a4 4 0 0 1-2-.4c-.5-.3-1-.8-1.3-1.4-.3-.6-.4-1.3-.4-2 0-.9.1-1.6.4-2.2.3-.5.8-1 1.3-1.3.6-.4 1.2-.5 2-.5.5 0 1 0 1.4.2a3.1 3.1 0 0 1 1.9 2c.2.4.3 1 .3 1.6v.6h-6.5v-1.3h4.5l-.2-.8-.6-.6-.8-.2-.9.3c-.2.1-.4.3-.5.6-.2.2-.2.5-.2.8v1.2c0 .4 0 .7.2 1 .1.3.3.5.6.6.2.2.5.3.9.3l.6-.1.5-.3c.2-.2.3-.3.3-.5l2 .1c0 .5-.3.9-.6 1.2a3 3 0 0 1-1.2.9c-.5.2-1 .2-1.7.2Zm5-.1V9.8h2v3.8h.2c0-.2.2-.4.4-.6.1-.2.4-.4.7-.5.2-.2.6-.2 1-.2a2.9 2.9 0 0 1 2.7 1.7c.3.6.4 1.3.4 2.2a5 5 0 0 1-.4 2.1 2.9 2.9 0 0 1-2.7 1.8c-.4 0-.7 0-1-.2l-.7-.5-.4-.6h-.1V20h-2.1Zm2-3.8.2 1.2c.2.3.3.6.6.8l.9.2c.3 0 .6 0 .8-.2.3-.2.4-.5.6-.8l.2-1.2-.2-1.2c-.1-.3-.3-.6-.6-.8-.2-.2-.5-.3-.8-.3-.4 0-.7.1-1 .3l-.5.8-.2 1.2Zm12.9 4c-.6 0-1.1-.2-1.6-.5s-.8-.8-1.1-1.4c-.3-.5-.4-1.3-.4-2.1 0-.9.1-1.6.4-2.2.3-.6.7-1 1.1-1.3a2.9 2.9 0 0 1 2.7-.2l.6.5.5.6V9.8h2.1V20h-2v-1.2h-.1l-.5.6a2 2 0 0 1-.7.5c-.3.2-.6.2-1 .2Zm.7-1.8c.3 0 .6 0 .8-.2.3-.2.4-.5.6-.8l.2-1.2-.2-1.2c-.1-.3-.3-.6-.6-.8-.2-.2-.5-.3-.8-.3-.4 0-.7.1-1 .3l-.5.8-.1 1.2.1 1.2c.2.3.3.6.6.8l.9.2Zm8.9 1.7a4 4 0 0 1-2-.4c-.6-.3-1-.8-1.4-1.4-.3-.6-.4-1.3-.4-2 0-.9.1-1.6.4-2.2.3-.5.8-1 1.3-1.3.6-.4 1.2-.5 2-.5.5 0 1 0 1.4.2a3.1 3.1 0 0 1 1.9 2c.2.4.3 1 .3 1.6v.6h-6.5v-1.3h4.5l-.2-.8-.6-.6-.8-.2-.9.3c-.2.1-.4.3-.5.6-.2.2-.2.5-.2.8v1.2c0 .4 0 .7.2 1 .1.3.3.5.6.6.2.2.5.3.9.3l.6-.1.5-.3.4-.5 2 .1c-.2.5-.4.9-.7 1.2a3 3 0 0 1-1.2.9c-.5.2-1 .2-1.6.2Zm11.2-5.6-2 .2a1 1 0 0 0-.2-.5l-.4-.3-.6-.1c-.3 0-.6 0-.9.2-.2.1-.3.3-.3.5s0 .4.2.5l.8.3 1.4.3c.7.1 1.3.4 1.6.7.4.3.6.8.6 1.3s-.2 1-.5 1.4c-.3.3-.7.6-1.2.8-.5.2-1 .3-1.7.3-1 0-1.8-.2-2.4-.6-.6-.4-1-1-1.1-1.7l2-.1.5.7 1 .2c.3 0 .6 0 .9-.2.2-.1.3-.3.3-.6 0-.1 0-.3-.2-.4-.2-.2-.4-.2-.8-.3l-1.3-.3c-.7-.1-1.3-.4-1.7-.8a2 2 0 0 1-.5-1.4c0-.4.1-.9.4-1.2.3-.4.6-.7 1.1-.8.5-.2 1-.3 1.7-.3 1 0 1.8.2 2.3.6.6.4.9 1 1 1.6ZM573 20v-7.6h2.1V20H573Zm1-8.6c-.2 0-.5-.1-.7-.3a1 1 0 0 1-.4-.8c0-.3.1-.5.4-.7.2-.3.5-.4.8-.4.3 0 .6.1.8.4.2.2.3.4.3.7 0 .3-.1.6-.3.8-.2.2-.5.3-.8.3Zm6.3 11.6a5 5 0 0 1-1.8-.3 3 3 0 0 1-1.2-.7c-.3-.3-.4-.7-.5-1.1l2-.3a1.3 1.3 0 0 0 .7.8l.8.1c.5 0 .8-.1 1.1-.3.3-.3.5-.6.5-1.2v-1.4a2 2 0 0 1-1.2 1.1l-1 .2c-.6 0-1.2-.1-1.6-.4-.5-.3-.9-.7-1.2-1.2-.2-.6-.4-1.3-.4-2.1 0-.9.2-1.6.5-2.2.2-.6.6-1 1-1.3a2.9 2.9 0 0 1 2.7-.2l.7.5.4.6v-1.2h2.2V20c0 .6-.2 1.2-.5 1.6-.3.4-.7.8-1.3 1-.6.2-1.2.3-2 .3Zm0-4.7c.3 0 .6 0 .9-.3.2-.1.4-.4.5-.7l.2-1.1c0-.5 0-.9-.2-1.2l-.5-.8-.9-.3-.9.3-.5.8-.2 1.2c0 .4 0 .8.2 1.1.1.3.3.6.5.7l.9.3Zm7.5-2.7V20h-2.1v-7.6h2v1.3c.3-.4.5-.8 1-1 .3-.3.8-.4 1.4-.4.5 0 1 0 1.4.3.4.2.7.6.9 1 .2.4.3 1 .3 1.5V20h-2.1v-4.5c0-.5-.1-.8-.4-1-.2-.3-.5-.5-1-.5-.2 0-.5 0-.7.2l-.5.5-.2.9Z"/></g><g clip-path="url(#p)"><rect width="232" height="29" x="640.3" fill="#fff" rx="14.5"/><path fill="url(#q)" fill-opacity=".1" d="M654.5.5h202.8a14 14 0 1 1 0 28H654.5a14 14 0 1 1 0-28Z"/><path stroke="url(#r)" d="M654.5.5h202.8a14 14 0 1 1 0 28H654.5a14 14 0 1 1 0-28Z"/><path stroke="url(#s)" d="M654.5.5h202.8a14 14 0 1 1 0 28H654.5a14 14 0 1 1 0-28Z"/><g filter="url(#t)"><rect width="29" height="29" x="640" fill="#00FF29" rx="14.5"/></g><rect width="11" height="11" x="649.7" y="9" fill="#fff" rx="5.5"/><path fill="#000" d="M681.3 11.6V9.8h8.4v1.8h-3.1V20h-2.1v-8.4h-3.2Zm12.1 8.5a4 4 0 0 1-2-.4c-.6-.3-1-.8-1.3-1.4a4.5 4.5 0 0 1 0-4.2c.3-.5.7-1 1.3-1.3.5-.4 1.2-.5 2-.5.4 0 .9 0 1.3.2a3.1 3.1 0 0 1 2 2l.2 1.6v.6h-6.4v-1.3h4.4c0-.3 0-.6-.2-.8l-.5-.6-.8-.2a1.6 1.6 0 0 0-1.5.9l-.2.8v1.2c0 .4 0 .7.2 1l.6.6c.3.2.6.3 1 .3l.6-.1.5-.3.3-.5 2 .1c-.1.5-.3.9-.6 1.2a3 3 0 0 1-1.2.9c-.5.2-1 .2-1.7.2Zm8.3 0a4 4 0 0 1-2-.4c-.5-.4-1-.8-1.3-1.4-.3-.6-.4-1.3-.4-2 0-.9.1-1.6.4-2.1.3-.6.8-1.1 1.3-1.4.6-.4 1.3-.5 2-.5a4 4 0 0 1 1.8.3c.5.3.9.6 1.2 1 .3.5.4 1 .5 1.6h-2l-.5-1c-.2-.2-.5-.3-1-.3-.3 0-.5.1-.8.3l-.6.8-.2 1.2.2 1.2.6.8c.3.2.5.3.9.3.2 0 .4 0 .6-.2.2 0 .4-.2.5-.4l.3-.7h2c0 .6-.2 1.1-.5 1.5-.3.5-.7.8-1.2 1a4 4 0 0 1-1.8.4Zm7-4.5V20h-2.2V9.8h2v4h.2c.1-.5.4-.9.8-1.1.4-.3.9-.4 1.4-.4.6 0 1 0 1.4.3.4.2.7.6 1 1 .2.4.3 1 .3 1.5V20h-2.1v-4.5c0-.5-.2-.8-.4-1-.2-.3-.6-.5-1-.5-.3 0-.5 0-.8.2l-.5.5-.2.9Zm8.7 0V20h-2.2v-7.6h2v1.3h.2c.1-.4.4-.8.8-1 .4-.3.9-.4 1.4-.4.6 0 1 0 1.4.3.4.2.7.6 1 1 .2.4.3 1 .3 1.5V20h-2.1v-4.5c0-.5-.1-.8-.4-1-.2-.3-.6-.5-1-.5-.3 0-.5 0-.7.2-.3.1-.4.3-.6.5l-.1.9ZM724 20v-7.6h2V20h-2Zm1-8.6c-.3 0-.6-.1-.8-.3a1 1 0 0 1-.3-.8c0-.3 0-.5.3-.7.2-.3.5-.4.8-.4.3 0 .6.1.8.4.2.2.4.4.4.7 0 .3-.2.6-.4.8-.2.2-.5.3-.8.3Zm6.2 8.7a4 4 0 0 1-2-.4c-.6-.4-1-.8-1.3-1.4-.3-.6-.4-1.3-.4-2 0-.9.1-1.6.4-2.1.3-.6.8-1.1 1.3-1.4.6-.4 1.2-.5 2-.5a4 4 0 0 1 1.8.3c.5.3.9.6 1.1 1 .3.5.5 1 .5 1.6h-2c0-.4-.2-.7-.4-1-.3-.2-.6-.3-1-.3-.3 0-.6.1-.8.3-.3.2-.4.4-.6.8l-.2 1.2c0 .5 0 .9.2 1.2.1.4.3.6.6.8.2.2.5.3.8.3.3 0 .5 0 .7-.2.2 0 .4-.2.5-.4l.2-.7h2c0 .6-.2 1.1-.4 1.5-.3.5-.7.8-1.2 1-.5.3-1.1.4-1.8.4Zm7 0c-.5 0-1 0-1.3-.2-.4-.2-.7-.4-1-.8-.2-.3-.3-.7-.3-1.2s.1-.8.3-1.1c.1-.3.3-.5.6-.7a3 3 0 0 1 1-.4 27.2 27.2 0 0 0 2.7-.5l.1-.4a1 1 0 0 0-.3-.7c-.1-.2-.4-.3-.8-.3s-.7 0-.9.3c-.2.1-.4.3-.4.6l-2-.2a2.7 2.7 0 0 1 1.7-2l1.6-.2 1.2.1 1 .5a2.2 2.2 0 0 1 1 2V20h-2v-1a2.2 2.2 0 0 1-1.2 1 3 3 0 0 1-1 .1Zm.6-1.4c.3 0 .6 0 .8-.2l.6-.5.2-.7v-.8h-.3a4.9 4.9 0 0 1-.8.2 101.8 101.8 0 0 0-1 .3 1 1 0 0 0-.5.3l-.1.5c0 .3 0 .5.3.7l.8.2Zm7.4-8.9V20h-2V9.8h2Zm8.4 10.3a4 4 0 0 1-2-.4c-.6-.4-1-.8-1.3-1.4-.3-.6-.4-1.3-.4-2 0-.9.1-1.6.4-2.1.3-.6.7-1.1 1.3-1.4.6-.4 1.2-.5 2-.5a4 4 0 0 1 1.8.3c.5.3.8.6 1.1 1 .3.5.5 1 .5 1.6h-2c0-.4-.2-.7-.4-1-.3-.2-.6-.3-1-.3-.3 0-.6.1-.8.3-.3.2-.5.4-.6.8l-.2 1.2c0 .5 0 .9.2 1.2.1.4.3.6.6.8.2.2.5.3.8.3.3 0 .5 0 .7-.2.2 0 .3-.2.5-.4l.2-.7h2c0 .6-.2 1.1-.5 1.5-.2.5-.6.8-1.1 1-.5.3-1.1.4-1.8.4Zm8.2 0a4 4 0 0 1-2-.4c-.5-.4-1-.8-1.3-1.4-.3-.6-.4-1.3-.4-2 0-.9.1-1.6.4-2.2.3-.5.8-1 1.3-1.3.6-.4 1.3-.5 2-.5.8 0 1.5.1 2 .5.6.3 1 .8 1.3 1.3.3.6.5 1.3.5 2.1s-.2 1.5-.5 2c-.3.7-.7 1.1-1.3 1.5-.5.3-1.2.4-2 .4Zm0-1.6c.4 0 .7 0 1-.3l.5-.8.1-1.2-.1-1.2c-.2-.3-.3-.6-.6-.8-.2-.2-.5-.3-.9-.3-.3 0-.6 0-.9.3l-.5.8-.2 1.2c0 .4 0 .8.2 1.2l.5.8c.3.2.6.3 1 .3ZM768 20v-7.6h2v1.3c.2-.4.5-.8.9-1 .3-.3.8-.4 1.3-.4s1 .1 1.3.4c.4.2.7.6.8 1 .2-.4.5-.8.9-1 .4-.3.9-.4 1.5-.4.7 0 1.2.2 1.7.6.4.5.7 1.1.7 2V20h-2.2v-4.7c0-.4 0-.8-.3-1-.2-.2-.5-.3-.8-.3-.4 0-.7.1-1 .4-.2.2-.3.5-.3 1V20h-2v-4.8l-.3-.9c-.2-.2-.5-.3-.9-.3-.2 0-.4 0-.6.2l-.5.5-.1.7V20H768Zm12.7 0v-7.6h2v1.3h.1a2.1 2.1 0 0 1 2.2-1.4c.5 0 1 .1 1.3.4.4.2.6.6.7 1h.1c.2-.4.5-.8.9-1 .4-.3.9-.4 1.4-.4.7 0 1.3.2 1.8.6.4.5.6 1.1.6 2V20h-2v-4.7c0-.4-.2-.8-.4-1-.2-.2-.5-.3-.9-.3s-.6.1-.9.4c-.2.2-.3.5-.3 1V20h-2v-4.8c0-.3-.1-.6-.4-.9-.2-.2-.5-.3-.8-.3-.2 0-.5 0-.6.2l-.5.5-.1.7V20h-2.2Zm17.7-3.3v-4.3h2.1V20h-2v-1.4h-.1c-.2.5-.5.8-.9 1-.4.4-.8.5-1.4.5-.5 0-1-.1-1.4-.3-.3-.3-.7-.6-.9-1-.2-.5-.3-1-.3-1.6v-4.8h2.1v4.4c0 .5.1.9.4 1.1.2.3.5.4 1 .4.2 0 .4 0 .7-.2.2 0 .4-.3.5-.5l.2-.9Zm6-1.1V20h-2.2v-7.6h2v1.3h.1c.2-.4.5-.8.9-1 .4-.3.8-.4 1.4-.4.5 0 1 0 1.4.3.4.2.7.6 1 1l.3 1.5V20H807v-4.5c0-.5 0-.8-.3-1-.3-.3-.6-.5-1-.5-.3 0-.6 0-.8.2l-.5.5-.2.9Zm6.5 4.4v-7.6h2.1V20h-2Zm1-8.6c-.2 0-.5-.1-.7-.3a1 1 0 0 1-.4-.8c0-.3.2-.5.4-.7.2-.3.5-.4.8-.4.3 0 .6.1.8.4.2.2.3.4.3.7 0 .3 0 .6-.3.8-.2.2-.5.3-.8.3Zm6.3 8.7a4 4 0 0 1-2-.4c-.6-.4-1-.8-1.3-1.4a4.5 4.5 0 0 1 0-4.1c.3-.6.7-1.1 1.3-1.4.5-.4 1.2-.5 2-.5a4 4 0 0 1 1.7.3 3 3 0 0 1 1.7 2.6h-2c0-.4-.2-.7-.4-1-.3-.2-.6-.3-1-.3-.3 0-.6.1-.8.3-.3.2-.5.4-.6.8-.2.3-.2.7-.2 1.2s0 .9.2 1.2c.1.4.3.6.6.8.2.2.5.3.8.3.3 0 .5 0 .7-.2.2 0 .3-.2.4-.4.2-.2.3-.4.3-.7h2c0 .6-.2 1.1-.5 1.5-.3.5-.7.8-1.1 1-.5.3-1.1.4-1.8.4Zm7 0c-.6 0-1 0-1.4-.2a2 2 0 0 1-.9-.8c-.2-.3-.3-.7-.3-1.2s0-.8.2-1.1l.7-.7a3 3 0 0 1 .9-.4 27.7 27.7 0 0 0 2.8-.5l.1-.4a1 1 0 0 0-.3-.7c-.2-.2-.5-.3-.8-.3-.4 0-.7 0-1 .3-.2.1-.3.3-.4.6l-2-.2a2.7 2.7 0 0 1 1.8-2l1.6-.2 1.2.1 1 .5a2.2 2.2 0 0 1 1 2V20h-2v-1a2.1 2.1 0 0 1-1.3 1 3 3 0 0 1-1 .1Zm.5-1.4c.3 0 .6 0 .9-.2l.5-.5c.2-.2.2-.5.2-.7v-.8h-.2a5 5 0 0 1-.9.2 101.8 101.8 0 0 0-1 .3 1 1 0 0 0-.4.3l-.2.5c0 .3.1.5.3.7l.8.2Zm9.4-6.3V14h-4.6v-1.6h4.6Zm-3.5-1.9h2.1V18.1l.3.2.4.1a1.8 1.8 0 0 0 .5 0l.4 1.5a6 6 0 0 1-1.2.2c-.5 0-1 0-1.3-.2l-1-.7-.2-1.3v-7.4Zm5 9.5v-7.6h2V20h-2Zm1-8.6c-.3 0-.6-.1-.8-.3a1 1 0 0 1-.4-.8c0-.3.1-.5.4-.7.2-.3.5-.4.8-.4.3 0 .6.1.8.4.2.2.3.4.3.7 0 .3 0 .6-.3.8-.2.2-.5.3-.8.3Zm6.2 8.7a4 4 0 0 1-2-.4c-.6-.4-1-.8-1.3-1.4-.3-.6-.5-1.3-.5-2 0-.9.2-1.6.5-2.2.3-.5.7-1 1.3-1.3.5-.4 1.2-.5 2-.5s1.4.1 2 .5c.5.3 1 .8 1.3 1.3.3.6.4 1.3.4 2.1s-.1 1.5-.4 2c-.3.7-.8 1.1-1.3 1.5-.6.3-1.2.4-2 .4Zm0-1.6c.3 0 .6 0 .9-.3l.5-.8.2-1.2c0-.4 0-.8-.2-1.2l-.5-.8c-.3-.2-.6-.3-1-.3-.3 0-.6 0-.8.3l-.5.8c-.2.4-.2.8-.2 1.2 0 .4 0 .8.2 1.2 0 .3.3.6.5.8.2.2.5.3.9.3Zm7.2-3V20h-2v-7.6h2v1.3c.2-.4.5-.8.9-1 .4-.3.9-.4 1.4-.4.6 0 1 0 1.4.3.4.2.7.6 1 1l.3 1.5V20h-2.2v-4.5c0-.5 0-.8-.3-1-.3-.3-.6-.5-1-.5-.3 0-.6 0-.8.2l-.5.5-.2.9Z"/></g><g clip-path="url(#u)"><rect width="245" height="29" x=".8" y="61" fill="#fff" rx="14.5"/><path fill="url(#v)" fill-opacity=".1" d="M15.5 61.5h215.3a14 14 0 1 1 0 28H15.5a14 14 0 1 1 0-28Z"/><path stroke="url(#w)" d="M15.5 61.5h215.3a14 14 0 1 1 0 28H15.5a14 14 0 1 1 0-28Z"/><path stroke="url(#x)" d="M15.5 61.5h215.3a14 14 0 1 1 0 28H15.5a14 14 0 1 1 0-28Z"/><g filter="url(#y)"><rect width="29" height="29" x="1" y="61" fill="#00FF29" rx="14.5"/></g><rect width="11.3" height="11" x="11" y="70" fill="#fff" rx="5.5"/><path fill="#000" d="m45 81-2.9-10.2h2.4l1.6 7h.1l1.9-7h2l1.8 7.1h.1l1.7-7h2.4L53 81h-2l-2-6.7-2 6.7h-2Zm14.8.1a4 4 0 0 1-2-.4c-.5-.3-1-.8-1.3-1.4-.3-.6-.4-1.3-.4-2 0-.9.1-1.6.4-2.2.3-.5.7-1 1.3-1.3.6-.4 1.2-.5 2-.5.5 0 1 0 1.4.2a3.1 3.1 0 0 1 1.9 2c.2.4.3 1 .3 1.6v.6h-6.5v-1.3h4.5l-.2-.8-.6-.6-.8-.2-.9.3c-.2.1-.4.3-.5.6-.2.2-.2.5-.2.8v1.2c0 .4 0 .7.2 1 .1.3.3.5.6.6.2.2.5.3.9.3l.6-.1.5-.3c.2-.2.3-.3.3-.5l2 .1c0 .5-.3.9-.6 1.2a3 3 0 0 1-1.2.9c-.5.2-1 .2-1.7.2Zm5-.1V70.8h2v3.8h.2c0-.2.2-.4.4-.6.1-.2.4-.4.7-.5.2-.2.6-.2 1-.2a2.9 2.9 0 0 1 2.7 1.7c.3.6.4 1.3.4 2.2a5 5 0 0 1-.4 2.1 2.9 2.9 0 0 1-2.7 1.8c-.4 0-.7 0-1-.2l-.7-.5-.4-.6h-.1V81h-2.1Zm2-3.8.2 1.2c.2.3.3.6.6.8l.9.2c.3 0 .6 0 .8-.2.3-.2.4-.5.6-.8l.2-1.2-.2-1.2c-.1-.3-.3-.6-.6-.8-.2-.2-.5-.3-.8-.3-.4 0-.7.1-1 .3l-.5.8-.2 1.2Zm16.4-1.7-2 .2a1 1 0 0 0-.1-.5l-.5-.3-.6-.1c-.3 0-.6 0-.8.2-.2.1-.4.3-.4.5s.1.4.3.5l.7.3 1.4.3c.7.1 1.3.4 1.7.7.3.3.5.8.5 1.3s-.1 1-.4 1.4c-.3.3-.7.6-1.2.8-.6.2-1.1.3-1.8.3-1 0-1.8-.2-2.4-.6-.6-.4-1-1-1-1.7l2-.1c0 .3.2.5.5.7l1 .2c.3 0 .6 0 .8-.2.2-.1.3-.3.3-.6 0-.1 0-.3-.2-.4-.2-.2-.4-.2-.7-.3l-1.4-.3c-.7-.1-1.3-.4-1.6-.8a2 2 0 0 1-.6-1.4c0-.4.2-.9.4-1.2.3-.4.7-.7 1.2-.8.5-.2 1-.3 1.7-.3 1 0 1.7.2 2.3.6.5.4.8 1 1 1.6Zm5 5.6a4 4 0 0 1-2-.4c-.6-.4-1-.8-1.3-1.4-.3-.6-.5-1.3-.5-2 0-.9.2-1.6.5-2.2.3-.5.7-1 1.3-1.3.5-.4 1.2-.5 2-.5s1.4.1 2 .5c.5.3 1 .8 1.3 1.3.3.6.4 1.3.4 2.1s-.1 1.5-.4 2c-.3.7-.8 1.1-1.3 1.5-.6.3-1.2.4-2 .4Zm0-1.6c.3 0 .6 0 .9-.3l.5-.8.2-1.2c0-.4 0-.8-.2-1.2l-.5-.8-.9-.3c-.4 0-.7 0-.9.3l-.5.8c-.2.4-.2.8-.2 1.2 0 .4 0 .8.2 1.2 0 .3.3.6.5.8.2.2.5.3.9.3Zm9.2-6.1V75h-4.7v-1.6h4.7ZM93.8 81v-8.2c0-.5.1-1 .3-1.4.2-.3.5-.6 1-.8a3 3 0 0 1 1.2-.3 4.9 4.9 0 0 1 1.5.2l-.4 1.6a2.6 2.6 0 0 0-.7 0c-.3 0-.5 0-.6.2l-.2.6V81h-2.1Zm9-7.6V75h-4.6v-1.6h4.6Zm-3.6-1.9h2.1v7.2l.1.4.3.2.4.1a1.8 1.8 0 0 0 .5 0l.3 1.5a6 6 0 0 1-1.1.2c-.5 0-1 0-1.4-.2l-.9-.7c-.2-.4-.3-.8-.3-1.3v-7.4Zm6.5 9.5-2.1-7.6h2.1l1.2 5 1.3-5h2.1l1.3 5 1.2-5h2.1l-2 7.6h-2.3l-1.3-4.8-1.4 4.8h-2.2Zm12.5.1c-.4 0-.9 0-1.3-.2l-.9-.8c-.2-.3-.3-.7-.3-1.2s0-.8.2-1.1l.7-.7a3 3 0 0 1 .9-.4 27.4 27.4 0 0 0 2.7-.5c.2 0 .2-.2.2-.4a1 1 0 0 0-.3-.7c-.2-.2-.4-.3-.8-.3s-.7 0-1 .3l-.4.6-2-.2a2.7 2.7 0 0 1 1.8-2l1.6-.2 1.2.1 1 .5a2.2 2.2 0 0 1 1 2V81h-2v-1a2.2 2.2 0 0 1-1.3 1 3 3 0 0 1-1 .1Zm.7-1.4c.3 0 .5 0 .8-.2l.5-.5c.2-.2.2-.5.2-.7v-.8h-.2a4.8 4.8 0 0 1-.8.2 101.8 101.8 0 0 0-1 .3 1 1 0 0 0-.5.3l-.2.5c0 .3.1.5.3.7l.9.2Zm5.3 1.3v-7.6h2v1.3h.1c.2-.5.4-.8.7-1 .4-.3.7-.4 1.2-.4a3.2 3.2 0 0 1 .6 0v2l-.4-.2h-.5c-.3 0-.6 0-.8.2a1.5 1.5 0 0 0-.8 1.4V81h-2.1Zm8.8.1a4 4 0 0 1-2-.4c-.5-.3-1-.8-1.3-1.4-.3-.6-.4-1.3-.4-2 0-.9.1-1.6.4-2.2.3-.5.7-1 1.3-1.3.6-.4 1.2-.5 2-.5.5 0 1 0 1.4.2a3.1 3.1 0 0 1 1.9 2c.2.4.3 1 .3 1.6v.6H130v-1.3h4.5l-.2-.8-.6-.6-.8-.2-.9.3c-.2.1-.4.3-.5.6-.2.2-.2.5-.2.8v1.2c0 .4 0 .7.2 1 .1.3.3.5.6.6.2.2.5.3.9.3l.6-.1.5-.3c.2-.2.3-.3.3-.5l2 .1c0 .5-.3.9-.6 1.2a3 3 0 0 1-1.2.9c-.5.2-1 .2-1.7.2Zm11 0c-.6 0-1.1-.1-1.6-.4-.5-.3-.8-.8-1.1-1.4-.3-.5-.4-1.3-.4-2.1 0-.9.1-1.6.4-2.2.3-.6.7-1 1.1-1.3a2.9 2.9 0 0 1 2.7-.2l.6.5.5.6v-3.8h2.1V81h-2v-1.2h-.1l-.5.6a2 2 0 0 1-.7.5c-.3.2-.6.2-1 .2Zm.7-1.7c.3 0 .6 0 .8-.2.3-.2.4-.5.6-.8l.2-1.2-.2-1.2c-.2-.3-.3-.6-.6-.8-.2-.2-.5-.3-.8-.3-.4 0-.7.1-1 .3l-.5.8-.1 1.2.1 1.2c.2.3.3.6.6.8l.9.2Zm8.9 1.7a4 4 0 0 1-2-.4c-.6-.3-1-.8-1.4-1.4-.3-.6-.4-1.3-.4-2 0-.9.1-1.6.4-2.2.3-.5.8-1 1.3-1.3.6-.4 1.2-.5 2-.5.5 0 1 0 1.4.2a3.1 3.1 0 0 1 1.9 2c.2.4.3 1 .3 1.6v.6h-6.5v-1.3h4.5l-.2-.8-.6-.6-.8-.2-.9.3c-.2.1-.4.3-.5.6-.2.2-.2.5-.2.8v1.2c0 .4 0 .7.2 1 .1.3.3.5.6.6.2.2.5.3.9.3l.6-.1.5-.3.4-.5 2 .1c-.2.5-.4.9-.7 1.2a3 3 0 0 1-1.2.9c-.5.2-1 .2-1.6.2Zm11.8-7.7-2.7 7.6h-2.4l-2.7-7.6h2.3l1.6 5.4 1.6-5.4h2.3Zm4.3 7.7a4 4 0 0 1-2-.4c-.6-.3-1-.8-1.4-1.4-.3-.6-.4-1.3-.4-2 0-.9.1-1.6.4-2.2.3-.5.8-1 1.3-1.3.6-.4 1.2-.5 2-.5.5 0 1 0 1.4.2a3.1 3.1 0 0 1 1.9 2c.2.4.3 1 .3 1.6v.6h-6.5v-1.3h4.5c0-.3 0-.6-.2-.8l-.6-.6-.8-.2c-.3 0-.6.1-.8.3-.3.1-.5.3-.6.6l-.2.8v1.2c0 .4 0 .7.2 1 .1.3.3.5.6.6.2.2.6.3 1 .3l.6-.1.5-.3c0-.2.2-.3.3-.5l2 .1c-.2.5-.4.9-.7 1.2a3 3 0 0 1-1.2.9c-.4.2-1 .2-1.6.2Zm7-10.3V81h-2.1V70.8h2Zm5.1 10.3a4 4 0 0 1-2-.4c-.5-.4-1-.8-1.3-1.4-.3-.6-.4-1.3-.4-2 0-.9.1-1.6.4-2.2.3-.5.8-1 1.3-1.3.6-.4 1.3-.5 2-.5.8 0 1.5.1 2 .5.6.3 1 .8 1.3 1.3.3.6.5 1.3.5 2.1s-.2 1.5-.5 2c-.3.7-.7 1.1-1.3 1.5-.5.3-1.2.4-2 .4Zm0-1.6c.4 0 .7 0 1-.3l.4-.8c.2-.4.2-.8.2-1.2 0-.4 0-.8-.2-1.2 0-.3-.3-.6-.5-.8-.2-.2-.5-.3-.9-.3-.3 0-.6 0-.9.3l-.5.8-.2 1.2c0 .4 0 .8.2 1.2l.5.8c.3.2.6.3 1 .3ZM187 84V73.4h2v1.2h.1l.4-.6.7-.5c.3-.2.7-.2 1.1-.2A2.9 2.9 0 0 1 194 75c.3.6.4 1.3.4 2.2a5 5 0 0 1-.4 2.1 2.9 2.9 0 0 1-2.7 1.8c-.4 0-.8 0-1-.2-.3-.1-.6-.3-.7-.5l-.5-.6v4H187Zm2-6.7.2 1.2c.1.3.3.6.6.8l.8.2c.4 0 .7 0 1-.2l.5-.8.1-1.2-.1-1.2c-.2-.3-.3-.6-.6-.8-.2-.2-.5-.3-.9-.3-.3 0-.6.1-.8.3-.3.2-.5.5-.6.8l-.2 1.2Zm6.8 3.8v-7.6h2v1.3h.1a2.1 2.1 0 0 1 2.2-1.4c.5 0 1 .1 1.3.4.4.2.6.6.7 1h.1c.2-.4.4-.8.9-1 .4-.3.8-.4 1.4-.4.7 0 1.3.2 1.7.6.5.5.7 1.1.7 2V81h-2.1v-4.7c0-.4-.1-.8-.3-1-.3-.2-.5-.3-.9-.3s-.7.1-.9.4c-.2.2-.3.5-.3 1V81h-2v-4.8c0-.3-.2-.6-.4-.9-.2-.2-.5-.3-.8-.3-.3 0-.5 0-.7.2l-.4.5-.2.7V81h-2Zm16.3.1a4 4 0 0 1-2-.4c-.6-.3-1-.8-1.4-1.4-.3-.6-.4-1.3-.4-2 0-.9.1-1.6.4-2.2.3-.5.8-1 1.3-1.3.6-.4 1.2-.5 2-.5.5 0 1 0 1.4.2a3.1 3.1 0 0 1 1.9 2c.2.4.3 1 .3 1.6v.6H209v-1.3h4.5c0-.3 0-.6-.2-.8l-.6-.6-.8-.2a1.6 1.6 0 0 0-1.4.9c-.2.2-.2.5-.2.8v1.2c0 .4 0 .7.2 1 .1.3.3.5.6.6.2.2.6.3.9.3l.7-.1.5-.3c0-.2.2-.3.3-.5l2 .1c-.2.5-.4.9-.7 1.2a3 3 0 0 1-1.2.9c-.4.2-1 .2-1.6.2Zm7-4.5V81H217v-7.6h2v1.3c.2-.4.5-.8 1-1 .3-.3.8-.4 1.4-.4.5 0 1 0 1.3.3.4.2.7.6 1 1 .2.4.3 1 .3 1.5V81h-2.1v-4.5c0-.5-.1-.8-.4-1-.2-.3-.6-.5-1-.5-.3 0-.5 0-.7.2-.3.1-.4.3-.5.5-.2.3-.2.6-.2.9Zm10.6-3.2V75h-4.6v-1.6h4.6Zm-3.5-1.9h2v7.2l.2.4.2.2.4.1a1.8 1.8 0 0 0 .5 0l.4 1.5a6 6 0 0 1-1.2.2c-.5 0-1 0-1.3-.2l-1-.7-.2-1.3v-7.4Z"/></g><g clip-path="url(#z)"><rect width="229" height="29" x="278.8" y="61" fill="#fff" rx="14.5"/><path fill="url(#A)" fill-opacity=".1" d="M293 61.5h199.7a14 14 0 1 1 0 28H293a14 14 0 1 1 0-28Z"/><path stroke="url(#B)" d="M293 61.5h199.7a14 14 0 1 1 0 28H293a14 14 0 1 1 0-28Z"/><path stroke="url(#C)" d="M293 61.5h199.7a14 14 0 1 1 0 28H293a14 14 0 1 1 0-28Z"/><g filter="url(#D)"><rect width="29" height="29" x="278.5" y="61" fill="#00FF29" rx="14.5"/></g><rect width="11" height="11" x="288.2" y="70" fill="#fff" rx="5.5"/><path fill="#000" d="M322 81h-2.3l3.5-10.2h2.8l3.5 10.2h-2.3l-2.6-7.9L322 81Zm-.2-4h5.5v1.7h-5.5V77Zm8.9 6.9V73.4h2v1.2h.1l.4-.6.7-.5c.3-.2.7-.2 1.1-.2a2.9 2.9 0 0 1 2.7 1.7c.3.6.4 1.3.4 2.2a5 5 0 0 1-.4 2.1 2.9 2.9 0 0 1-2.7 1.8c-.4 0-.8 0-1-.2-.3-.1-.6-.3-.7-.5l-.5-.6v4h-2.1Zm2-6.7c0 .4 0 .8.2 1.2.1.3.3.6.6.8l.8.2c.4 0 .7 0 1-.2l.4-.8c.2-.4.2-.8.2-1.2l-.1-1.2c-.2-.3-.3-.6-.6-.8-.2-.2-.5-.3-.9-.3-.3 0-.6.1-.8.3-.3.2-.5.5-.6.8l-.2 1.2Zm6.8 6.7V73.4h2.1v1.2h.1c0-.2.2-.4.4-.6l.7-.5c.3-.2.6-.2 1-.2a2.9 2.9 0 0 1 2.7 1.7c.3.6.5 1.3.5 2.2a5 5 0 0 1-.5 2.1 2.9 2.9 0 0 1-2.7 1.8c-.3 0-.7 0-1-.2l-.7-.5-.4-.6v4h-2.2Zm2-6.7.3 1.2.5.8.9.2c.3 0 .6 0 .9-.2l.5-.8.2-1.2c0-.5 0-.8-.2-1.2l-.5-.8c-.3-.2-.6-.3-1-.3-.3 0-.5.1-.8.3l-.5.8c-.2.3-.2.7-.2 1.2Zm9-6.4V81h-2.1V70.8h2Zm1.7 10.2v-7.6h2.1V81h-2.1Zm1-8.6c-.3 0-.5-.1-.8-.3a1 1 0 0 1-.3-.8c0-.3.1-.5.3-.7.3-.3.5-.4.9-.4.3 0 .5.1.8.4.2.2.3.4.3.7 0 .3-.1.6-.3.8-.3.2-.5.3-.8.3Zm6.3 8.7a4 4 0 0 1-2-.4c-.6-.4-1-.8-1.4-1.4-.3-.6-.4-1.3-.4-2 0-.9.1-1.6.4-2.1.4-.6.8-1.1 1.3-1.4.6-.4 1.3-.5 2-.5a4 4 0 0 1 1.8.3c.5.3.9.6 1.2 1 .3.5.4 1 .5 1.6h-2c0-.4-.2-.7-.5-1-.2-.2-.5-.3-1-.3-.3 0-.5.1-.8.3l-.6.8-.2 1.2.2 1.2.6.8c.3.2.5.3.9.3.2 0 .4 0 .6-.2.2 0 .4-.2.5-.4l.3-.7h2c0 .6-.2 1.1-.5 1.5-.3.5-.7.8-1.2 1a4 4 0 0 1-1.7.4Zm6.9 0c-.5 0-1 0-1.3-.2-.4-.2-.7-.4-1-.8L364 79c0-.5 0-.8.2-1.1.1-.3.4-.5.6-.7l1-.4a27.7 27.7 0 0 0 2.7-.5l.2-.4a1 1 0 0 0-.3-.7c-.2-.2-.5-.3-.9-.3-.3 0-.6 0-.9.3-.2.1-.3.3-.4.6l-2-.2a2.7 2.7 0 0 1 1.7-2l1.7-.2 1.2.1 1 .5a2.2 2.2 0 0 1 1 2V81h-2v-1a2.2 2.2 0 0 1-1.3 1 3 3 0 0 1-1 .1Zm.6-1.4c.3 0 .6 0 .8-.2.3-.1.5-.3.6-.5l.2-.7v-.8h-.3a5 5 0 0 1-.8.2 136.8 136.8 0 0 0-1 .3 1 1 0 0 0-.5.3l-.1.5c0 .3 0 .5.3.7l.8.2Zm9.4-6.3V75h-4.6v-1.6h4.6Zm-3.6-1.9h2.2V79.1l.3.2.4.1a1.8 1.8 0 0 0 .5 0l.3 1.5a6 6 0 0 1-1.1.2c-.5 0-1 0-1.3-.2l-1-.7c-.2-.4-.3-.8-.3-1.3v-7.4Zm5 9.5v-7.6h2.1V81h-2.1Zm1-8.6c-.3 0-.5-.1-.8-.3a1 1 0 0 1-.3-.8c0-.3.1-.5.3-.7.3-.3.5-.4.8-.4.4 0 .6.1.8.4.3.2.4.4.4.7 0 .3-.1.6-.4.8-.2.2-.4.3-.8.3ZM385 81a4 4 0 0 1-2-.4c-.5-.4-1-.8-1.3-1.4-.3-.6-.4-1.3-.4-2 0-.9.1-1.6.4-2.2.3-.5.8-1 1.3-1.3.6-.4 1.3-.5 2-.5.8 0 1.5.1 2 .5.6.3 1 .8 1.3 1.3.4.6.5 1.3.5 2.1s-.1 1.5-.5 2c-.3.7-.7 1.1-1.3 1.5-.5.3-1.2.4-2 .4Zm0-1.6c.4 0 .7 0 1-.3l.5-.8.2-1.2-.2-1.2c-.2-.3-.3-.6-.6-.8-.2-.2-.5-.3-.8-.3-.4 0-.7 0-1 .3l-.5.8-.2 1.2.2 1.2c.1.3.3.6.6.8.2.2.5.3.9.3Zm7.3-3V81h-2.1v-7.6h2v1.3c.3-.4.5-.8 1-1 .3-.3.8-.4 1.4-.4.5 0 1 0 1.4.3.4.2.7.6.9 1 .2.4.3 1 .3 1.5V81h-2.1v-4.5c0-.5-.1-.8-.4-1-.2-.3-.5-.5-1-.5-.2 0-.5 0-.7.2l-.5.5-.2.9Zm12.6 4.6c-.5 0-1-.1-1.5-.4-.5-.3-.9-.8-1.1-1.4-.3-.5-.5-1.3-.5-2.1 0-.9.2-1.6.5-2.2.3-.6.6-1 1-1.3a2.9 2.9 0 0 1 2.7-.2l.7.5.4.6v-3.8h2.2V81h-2.1v-1.2l-.5.6a2 2 0 0 1-.7.5c-.3.2-.6.2-1 .2Zm.7-1.7c.4 0 .6 0 .9-.2l.5-.8c.2-.4.2-.8.2-1.2 0-.5 0-.9-.2-1.2 0-.3-.3-.6-.5-.8-.3-.2-.5-.3-.9-.3l-.9.3-.5.8-.2 1.2c0 .4 0 .8.2 1.2l.5.8 1 .2Zm9 1.7a4 4 0 0 1-2.1-.4c-.6-.3-1-.8-1.3-1.4a4.5 4.5 0 0 1 0-4.2c.3-.5.7-1 1.3-1.3.5-.4 1.2-.5 2-.5.4 0 .9 0 1.3.2a3.1 3.1 0 0 1 2 2l.2 1.6v.6h-6.4v-1.3h4.4c0-.3 0-.6-.2-.8l-.5-.6-.8-.2c-.4 0-.6.1-.9.3l-.6.6-.2.8v1.2c0 .4 0 .7.2 1l.6.6c.3.2.6.3 1 .3l.6-.1.5-.3.3-.5 2 .1c-.1.5-.3.9-.6 1.2a3 3 0 0 1-1.2.9c-.5.2-1 .2-1.7.2Zm11.7-7.7-2.7 7.6h-2.3l-2.7-7.6h2.2l1.6 5.4 1.7-5.4h2.2Zm4.3 7.7a4 4 0 0 1-2-.4c-.6-.3-1-.8-1.3-1.4a4.5 4.5 0 0 1 0-4.2c.3-.5.7-1 1.3-1.3.5-.4 1.2-.5 2-.5.4 0 1 0 1.4.2a3.1 3.1 0 0 1 1.9 2l.2 1.6v.6h-6.4v-1.3h4.4c0-.3 0-.6-.2-.8 0-.2-.3-.4-.5-.6l-.8-.2-.9.3-.6.6-.2.8v1.2l.2 1 .6.6c.3.2.6.3 1 .3l.6-.1.5-.3c.2-.2.3-.3.3-.5l2 .1c-.1.5-.3.9-.6 1.2a3 3 0 0 1-1.2.9c-.5.2-1 .2-1.7.2Zm7-10.3V81h-2V70.8h2Zm5.2 10.3a4 4 0 0 1-2-.4c-.6-.4-1-.8-1.3-1.4-.3-.6-.5-1.3-.5-2 0-.9.2-1.6.5-2.2.3-.5.7-1 1.3-1.3.5-.4 1.2-.5 2-.5s1.4.1 2 .5c.5.3 1 .8 1.3 1.3.3.6.4 1.3.4 2.1s-.1 1.5-.4 2c-.3.7-.8 1.1-1.3 1.5-.6.3-1.2.4-2 .4Zm0-1.6c.3 0 .6 0 .9-.3l.5-.8.2-1.2c0-.4 0-.8-.2-1.2l-.5-.8c-.3-.2-.6-.3-1-.3-.3 0-.6 0-.8.3l-.5.8c-.2.4-.2.8-.2 1.2 0 .4 0 .8.2 1.2 0 .3.3.6.5.8.2.2.5.3.9.3Zm5.1 4.4V73.4h2.1v1.2h.1c0-.2.2-.4.4-.6l.7-.5c.3-.2.6-.2 1-.2A2.9 2.9 0 0 1 455 75c.3.6.5 1.3.5 2.2a5 5 0 0 1-.4 2.1 2.9 2.9 0 0 1-2.7 1.8c-.4 0-.8 0-1-.2-.4-.1-.6-.3-.8-.5l-.4-.6v4h-2.2Zm2-6.7.3 1.2.5.8.9.2c.3 0 .6 0 .9-.2l.5-.8.2-1.2c0-.5 0-.8-.2-1.2l-.5-.8-.9-.3-.9.3-.5.8-.2 1.2Zm6.9 3.8v-7.6h2v1.3a2.1 2.1 0 0 1 2.2-1.4c.5 0 1 .1 1.4.4.3.2.6.6.7 1 .2-.4.5-.8 1-1 .3-.3.8-.4 1.4-.4.7 0 1.3.2 1.7.6.4.5.7 1.1.7 2V81h-2.1v-4.7c0-.4-.2-.8-.4-1-.2-.2-.5-.3-.8-.3-.4 0-.7.1-1 .4l-.2 1V81h-2.1v-4.8l-.3-.9c-.2-.2-.5-.3-.9-.3-.2 0-.4 0-.6.2l-.4.5c-.2.2-.2.4-.2.7V81h-2.1Zm16.2.1a4 4 0 0 1-2-.4c-.6-.3-1-.8-1.3-1.4a4.5 4.5 0 0 1 0-4.2c.3-.5.7-1 1.3-1.3.5-.4 1.2-.5 2-.5.4 0 1 0 1.3.2a3.1 3.1 0 0 1 2 2l.2 1.6v.6h-6.4v-1.3h4.4c0-.3 0-.6-.2-.8 0-.2-.3-.4-.5-.6l-.8-.2a1.6 1.6 0 0 0-1.5.9l-.2.8v1.2l.2 1 .6.6c.3.2.6.3 1 .3l.6-.1.5-.3c.1-.2.3-.3.3-.5l2 .1c-.1.5-.3.9-.6 1.2a3 3 0 0 1-1.2.9c-.5.2-1 .2-1.7.2Zm7-4.5V81h-2v-7.6h2v1.3c.2-.4.5-.8.9-1 .4-.3.9-.4 1.4-.4.5 0 1 0 1.4.3.4.2.7.6 1 1l.3 1.5V81h-2.2v-4.5c0-.5 0-.8-.3-1-.3-.3-.6-.5-1-.5-.3 0-.6 0-.8.2l-.5.5-.2.9Zm10.7-3.2V75H486v-1.6h4.6Zm-3.6-1.9h2.1v7.2l.1.4.3.2.4.1a1.8 1.8 0 0 0 .5 0l.3 1.5a6.1 6.1 0 0 1-1.1.2c-.5 0-1 0-1.4-.2l-.9-.7c-.2-.4-.3-.8-.3-1.3v-7.4Z"/></g><g clip-path="url(#E)"><rect width="170" height="29" x="540.8" y="61" fill="#fff" rx="14.5"/><path fill="url(#F)" fill-opacity=".1" d="M555 61.5h140.9a14 14 0 1 1 0 28H555a14 14 0 1 1 0-28Z"/><path stroke="url(#G)" d="M555 61.5h140.9a14 14 0 1 1 0 28H555a14 14 0 1 1 0-28Z"/><path stroke="url(#H)" d="M555 61.5h140.9a14 14 0 1 1 0 28H555a14 14 0 1 1 0-28Z"/><g filter="url(#I)"><rect width="29" height="29" x="540.5" y="61" fill="#00FF29" rx="14.5"/></g><rect width="11" height="11" x="550.2" y="70" fill="#fff" rx="5.5"/><path fill="#000" d="M587.7 73.7c0-.4-.2-.7-.5-.9a2 2 0 0 0-1.2-.3l-.9.1-.5.4a1 1 0 0 0-.2.6v.5l.4.3.6.3.6.2.9.2 1.2.4 1 .6a2.5 2.5 0 0 1 .8 2c0 .6-.1 1.2-.4 1.6a3 3 0 0 1-1.4 1c-.6.3-1.3.4-2.1.4s-1.5 0-2.2-.3c-.6-.3-1-.7-1.4-1.2-.3-.4-.5-1-.5-1.8h2l.4.9c.1.2.4.4.7.5l1 .1 1-.1.5-.5.3-.6c0-.2 0-.4-.2-.6l-.6-.4a6 6 0 0 0-1-.3l-1-.3c-1-.2-1.6-.5-2.1-1-.5-.4-.7-1-.7-1.7s.1-1.2.5-1.7c.3-.4.7-.8 1.3-1 .6-.3 1.3-.4 2-.4.8 0 1.4.1 2 .4.6.2 1 .6 1.3 1 .3.5.5 1 .5 1.6h-2Zm7.1 7.4a4 4 0 0 1-2-.4c-.6-.4-1-.8-1.3-1.4-.3-.6-.5-1.3-.5-2 0-.9.2-1.6.5-2.2.3-.5.7-1 1.3-1.3.6-.4 1.2-.5 2-.5s1.4.1 2 .5c.6.3 1 .8 1.3 1.3.3.6.5 1.3.5 2.1s-.2 1.5-.5 2c-.3.7-.7 1.1-1.3 1.5-.6.3-1.2.4-2 .4Zm0-1.6c.4 0 .7 0 .9-.3l.5-.8.2-1.2c0-.4 0-.8-.2-1.2 0-.3-.3-.6-.5-.8-.2-.2-.5-.3-.9-.3-.3 0-.6 0-.9.3l-.5.8-.2 1.2c0 .4 0 .8.2 1.2l.5.8c.3.2.6.3 1 .3Zm9.2-6.1V75h-4.7v-1.6h4.7Zm-3.6 7.6v-8.2c0-.5.1-1 .3-1.4l1-.8a3 3 0 0 1 1.2-.3 5 5 0 0 1 1.5.2l-.4 1.6a2.6 2.6 0 0 0-.6 0c-.4 0-.6 0-.7.2l-.2.6V81h-2Zm9-7.6V75h-4.6v-1.6h4.6Zm-3.6-1.9h2.2V79.1l.3.2.4.1a1.8 1.8 0 0 0 .5 0l.3 1.5a6 6 0 0 1-1.1.2c-.5 0-1 0-1.3-.2l-1-.7c-.2-.4-.3-.8-.3-1.3v-7.4Zm6.5 9.5-2-7.6h2l1.2 5h.1l1.2-5h2.1l1.3 5 1.2-5h2.2l-2.1 7.6h-2.3l-1.3-4.8-1.4 4.8h-2.2Zm12.6.1c-.5 0-1 0-1.3-.2-.4-.2-.7-.4-1-.8-.2-.3-.3-.7-.3-1.2s.1-.8.3-1.1c.1-.3.3-.5.6-.7a3 3 0 0 1 1-.4 27.4 27.4 0 0 0 2.7-.5l.2-.4a1 1 0 0 0-.3-.7c-.2-.2-.5-.3-.9-.3s-.7 0-.9.3c-.2.1-.4.3-.4.6l-2-.2a2.7 2.7 0 0 1 1.7-2l1.6-.2 1.2.1 1 .5a2.2 2.2 0 0 1 1 2V81h-2v-1a2.2 2.2 0 0 1-1.2 1 3 3 0 0 1-1 .1Zm.6-1.4c.3 0 .6 0 .8-.2l.6-.5.2-.7v-.8h-.3a4.9 4.9 0 0 1-.8.2l-.4.1-.7.2a1 1 0 0 0-.4.3l-.1.5c0 .3 0 .5.3.7l.8.2Zm5.3 1.3v-7.6h2v1.3h.1c.2-.5.4-.8.7-1 .4-.3.8-.4 1.2-.4a3.2 3.2 0 0 1 .6 0v2l-.4-.2h-.4c-.4 0-.6 0-.9.2a1.5 1.5 0 0 0-.8 1.4V81h-2Zm8.9.1a4 4 0 0 1-2-.4c-.6-.3-1-.8-1.4-1.4-.3-.6-.4-1.3-.4-2 0-.9.1-1.6.4-2.2.3-.5.8-1 1.3-1.3.6-.4 1.2-.5 2-.5.5 0 1 0 1.4.2a3.1 3.1 0 0 1 1.9 2c.2.4.3 1 .3 1.6v.6h-6.5v-1.3h4.5c0-.3 0-.6-.2-.8l-.6-.6-.8-.2c-.3 0-.6.1-.8.3-.3.1-.5.3-.6.6-.2.2-.2.5-.2.8v1.2c0 .4 0 .7.2 1 .1.3.3.5.6.6.2.2.5.3.9.3l.6-.1.5-.3.4-.5 2 .1c-.2.5-.4.9-.7 1.2a3 3 0 0 1-1.2.9c-.4.2-1 .2-1.6.2Zm12.2-7.7V75h-4.6v-1.6h4.6Zm-3.6-1.9h2.1v7.2l.1.4c0 .1.1.2.3.2l.3.1a1.8 1.8 0 0 0 .6 0l.3 1.5a6 6 0 0 1-1.2.2c-.5 0-1 0-1.3-.2-.4-.2-.7-.4-.9-.7-.2-.4-.3-.8-.3-1.3v-7.4Zm8.3 9.6a4 4 0 0 1-2-.4c-.6-.3-1-.8-1.3-1.4a4.5 4.5 0 0 1 0-4.2c.3-.5.7-1 1.3-1.3.5-.4 1.2-.5 2-.5.5 0 1 0 1.4.2a3.1 3.1 0 0 1 1.9 2l.2 1.6v.6h-6.4v-1.3h4.4c0-.3 0-.6-.2-.8 0-.2-.3-.4-.5-.6l-.8-.2-.9.3-.6.6-.2.8v1.2l.2 1 .6.6c.3.2.6.3 1 .3l.6-.1.5-.3c.2-.2.3-.3.3-.5l2 .1c-.1.5-.3.9-.6 1.2a3 3 0 0 1-1.2.9c-.5.2-1 .2-1.7.2Zm11.3-5.6-2 .2a1 1 0 0 0-.2-.5l-.4-.3-.6-.1c-.4 0-.6 0-.9.2-.2.1-.3.3-.3.5s0 .4.2.5l.8.3 1.3.3c.8.1 1.3.4 1.7.7.4.3.5.8.5 1.3s-.1 1-.4 1.4c-.3.3-.7.6-1.2.8-.5.2-1 .3-1.8.3-1 0-1.8-.2-2.4-.6-.6-.4-1-1-1-1.7l2-.1.5.7 1 .2c.3 0 .6 0 .8-.2.3-.1.4-.3.4-.6 0-.1 0-.3-.3-.4-.1-.2-.4-.2-.7-.3l-1.3-.3c-.8-.1-1.3-.4-1.7-.8a2 2 0 0 1-.5-1.4c0-.4.1-.9.4-1.2.3-.4.6-.7 1.1-.8.5-.2 1-.3 1.7-.3 1 0 1.7.2 2.3.6.6.4.9 1 1 1.6Zm5.5-2.1V75h-4.6v-1.6h4.6Zm-3.5-1.9h2.1v7.2l.1.4.2.2.4.1a1.8 1.8 0 0 0 .5 0l.4 1.5a6 6 0 0 1-1.2.2c-.5 0-1 0-1.3-.2-.4-.2-.7-.4-.9-.7-.2-.4-.3-.8-.3-1.3v-7.4Zm5 9.5v-7.6h2V81h-2Zm1-8.6c-.3 0-.6-.1-.8-.3a1 1 0 0 1-.4-.8c0-.3.2-.5.4-.7.2-.3.5-.4.8-.4.3 0 .6.1.8.4.2.2.3.4.3.7 0 .3 0 .6-.3.8-.2.2-.5.3-.8.3Zm4.9 4.2V81h-2.2v-7.6h2v1.3h.1c.2-.4.5-.8.9-1 .4-.3.9-.4 1.4-.4.6 0 1 0 1.4.3.4.2.7.6 1 1 .2.4.3 1 .3 1.5V81h-2.1v-4.5c0-.5-.2-.8-.4-1-.2-.3-.6-.5-1-.5-.3 0-.5 0-.8.2l-.5.5-.1.9Zm10 7.4a5 5 0 0 1-1.8-.3 3 3 0 0 1-1.1-.7c-.3-.3-.5-.7-.6-1.1l2-.3.2.5c.2 0 .3.2.5.3l.8.1c.5 0 .9-.1 1.2-.3.3-.3.4-.6.4-1.2v-1.4a2 2 0 0 1-1.2 1.1l-1 .2a2.9 2.9 0 0 1-2.7-1.6c-.3-.6-.4-1.3-.4-2.1 0-.9.1-1.6.4-2.2.3-.6.6-1 1.1-1.3a2.9 2.9 0 0 1 2.6-.2l.7.5.4.6h.1v-1.2h2.1V81c0 .6-.1 1.2-.5 1.6-.3.4-.7.8-1.3 1-.5.2-1.2.3-2 .3Zm0-4.7c.4 0 .7 0 .9-.3.2-.1.4-.4.5-.7.2-.3.2-.7.2-1.1 0-.5 0-.9-.2-1.2 0-.3-.3-.6-.5-.8-.2-.2-.5-.3-.9-.3-.3 0-.6.1-.8.3-.3.2-.5.5-.6.8l-.2 1.2c0 .4 0 .8.2 1.1.1.3.3.6.6.7.2.2.5.3.8.3Z"/></g><g clip-path="url(#J)"><rect width="200" height="29" x="743.1" y="61" fill="#fff" rx="14.5"/><path fill="url(#K)" fill-opacity=".1" d="M757.6 61.5h171a14 14 0 1 1 0 28h-171a14 14 0 1 1 0-28Z"/><path stroke="url(#L)" d="M757.6 61.5h171a14 14 0 1 1 0 28h-171a14 14 0 1 1 0-28Z"/><path stroke="url(#M)" d="M757.6 61.5h171a14 14 0 1 1 0 28h-171a14 14 0 1 1 0-28Z"/><g filter="url(#N)"><rect width="29" height="29" x="743.1" y="61" fill="#00FF29" rx="14.5"/></g><rect width="11" height="11" x="752.8" y="70" fill="#fff" rx="5.5"/><path fill="#000" d="M790.4 73.7c0-.4-.2-.7-.5-.9a2 2 0 0 0-1.3-.3l-.9.1-.5.4a1 1 0 0 0-.2.6l.1.5.4.3.5.3.6.2 1 .2 1.1.4 1 .6a2.5 2.5 0 0 1 .9 2c0 .6-.2 1.2-.5 1.6a3 3 0 0 1-1.4 1c-.5.3-1.3.4-2 .4-.9 0-1.6 0-2.2-.3-.6-.3-1.1-.7-1.5-1.2-.3-.4-.5-1-.5-1.8h2.1l.3.9.7.5 1 .1 1-.1.6-.5.2-.6c0-.2 0-.4-.2-.6l-.6-.4a6 6 0 0 0-1-.3l-1-.3c-.9-.2-1.6-.5-2-1-.6-.4-.8-1-.8-1.7s.1-1.2.5-1.7c.3-.4.8-.8 1.4-1 .5-.3 1.2-.4 2-.4.7 0 1.4.1 2 .4.5.2 1 .6 1.2 1 .4.5.5 1 .5 1.6h-2Zm7 7.4a4 4 0 0 1-2-.4c-.5-.4-1-.8-1.3-1.4-.3-.6-.4-1.3-.4-2 0-.9.1-1.6.4-2.2.3-.5.8-1 1.3-1.3.6-.4 1.3-.5 2-.5.8 0 1.5.1 2 .5.6.3 1 .8 1.3 1.3.3.6.5 1.3.5 2.1s-.2 1.5-.5 2c-.3.7-.7 1.1-1.3 1.5-.5.3-1.2.4-2 .4Zm0-1.6c.4 0 .7 0 1-.3l.5-.8.1-1.2-.1-1.2c-.2-.3-.3-.6-.6-.8-.2-.2-.5-.3-.9-.3-.3 0-.6 0-.9.3l-.5.8-.2 1.2c0 .4 0 .8.2 1.2l.5.8c.3.2.6.3 1 .3Zm7.3-8.7V81h-2.1V70.8h2Zm6.6 7v-4.4h2.1V81h-2v-1.4h-.1c-.2.5-.5.8-.9 1-.4.4-.9.5-1.4.5-.5 0-1-.1-1.4-.3-.4-.3-.7-.6-.9-1-.2-.5-.3-1-.3-1.6v-4.8h2.1v4.4c0 .5.1.9.4 1.1.2.3.5.4 1 .4.2 0 .4 0 .6-.2.3 0 .4-.3.6-.5l.2-.9Zm7.9-4.4V75h-4.6v-1.6h4.6Zm-3.6-1.9h2.1v7.2l.1.4c0 .1.1.2.3.2l.3.1a1.8 1.8 0 0 0 .6 0l.3 1.5a6 6 0 0 1-1.2.2c-.5 0-1 0-1.3-.2-.4-.2-.7-.4-.9-.7-.2-.4-.3-.8-.3-1.3v-7.4Zm5 9.5v-7.6h2V81h-2Zm1-8.6c-.3 0-.6-.1-.8-.3a1 1 0 0 1-.3-.8c0-.3 0-.5.3-.7.2-.3.5-.4.8-.4.3 0 .6.1.8.4.2.2.3.4.3.7 0 .3 0 .6-.3.8-.2.2-.5.3-.8.3Zm6.2 8.7a4 4 0 0 1-2-.4c-.6-.4-1-.8-1.3-1.4-.3-.6-.5-1.3-.5-2 0-.9.2-1.6.5-2.2.3-.5.7-1 1.3-1.3.6-.4 1.2-.5 2-.5s1.4.1 2 .5c.6.3 1 .8 1.3 1.3.3.6.5 1.3.5 2.1s-.2 1.5-.5 2c-.3.7-.7 1.1-1.3 1.5-.6.3-1.2.4-2 .4Zm0-1.6c.4 0 .7 0 .9-.3l.5-.8.2-1.2c0-.4 0-.8-.2-1.2l-.5-.8c-.3-.2-.5-.3-.9-.3-.3 0-.6 0-.9.3l-.5.8c-.2.4-.2.8-.2 1.2 0 .4 0 .8.2 1.2 0 .3.3.6.5.8l.9.3Zm7.2-3V81h-2v-7.6h2v1.3c.2-.4.5-.8.9-1 .4-.3.9-.4 1.4-.4.6 0 1 0 1.4.3.4.2.7.6 1 1 .2.4.3 1 .3 1.5V81h-2.1v-4.5c0-.5-.2-.8-.4-1-.2-.3-.6-.5-1-.5-.3 0-.5 0-.8.2l-.5.5-.2.9Zm12 4.6c-.4 0-.9 0-1.2-.2-.4-.2-.7-.4-1-.8-.2-.3-.3-.7-.3-1.2s.1-.8.3-1.1c.1-.3.3-.5.6-.7l1-.4a27.7 27.7 0 0 0 2.7-.5l.1-.4a1 1 0 0 0-.3-.7c-.2-.2-.4-.3-.8-.3s-.7 0-.9.3c-.2.1-.4.3-.5.6l-2-.2a2.7 2.7 0 0 1 1.8-2l1.6-.2 1.2.1 1 .5a2.2 2.2 0 0 1 1 2V81h-2v-1a2.2 2.2 0 0 1-1.2 1 3 3 0 0 1-1 .1Zm.7-1.4c.3 0 .6 0 .8-.2l.6-.5.2-.7v-.8h-.3a5 5 0 0 1-.8.2 101.8 101.8 0 0 0-1 .3 1 1 0 0 0-.5.3l-.2.5c0 .3.1.5.4.7l.8.2ZM853 81v-7.6h2v1.3h.1c.2-.5.4-.8.7-1 .4-.3.7-.4 1.2-.4a3.2 3.2 0 0 1 .6 0v2l-.4-.2h-.5c-.3 0-.6 0-.8.2a1.5 1.5 0 0 0-.8 1.4V81H853Zm8.8.1a4 4 0 0 1-2-.4c-.6-.4-1-.8-1.3-1.4-.3-.6-.4-1.3-.4-2 0-.9.1-1.6.4-2.1.3-.6.8-1.1 1.3-1.4.6-.4 1.2-.5 2-.5a4 4 0 0 1 1.8.3c.5.3.9.6 1.2 1 .2.5.4 1 .4 1.6h-2c0-.4-.2-.7-.4-1-.2-.2-.6-.3-1-.3-.3 0-.6.1-.8.3-.3.2-.4.4-.6.8l-.2 1.2c0 .5 0 .9.2 1.2.2.4.3.6.6.8.2.2.5.3.9.3.2 0 .4 0 .6-.2.2 0 .4-.2.5-.4l.2-.7h2c0 .6-.2 1.1-.4 1.5-.3.5-.7.8-1.2 1-.5.3-1.1.4-1.8.4Zm7-4.5V81h-2.2V70.8h2v4h.1c.2-.5.5-.9.9-1.1.4-.3.8-.4 1.4-.4.6 0 1 0 1.4.3.4.2.7.6 1 1 .2.4.3 1 .3 1.5V81h-2.2v-4.5c0-.5 0-.8-.3-1-.3-.3-.6-.5-1-.5-.3 0-.6 0-.8.2l-.5.5-.2.9Zm6.5 4.4v-7.6h2.1V81h-2Zm1-8.6c-.2 0-.5-.1-.7-.3a1 1 0 0 1-.4-.8c0-.3.2-.5.4-.7.2-.3.5-.4.8-.4.3 0 .6.1.8.4.2.2.3.4.3.7 0 .3 0 .6-.3.8-.2.2-.5.3-.8.3Zm6.9 1V75h-4.6v-1.6h4.6Zm-3.6-1.9h2.2V79.1l.3.2.4.1a1.8 1.8 0 0 0 .5 0l.3 1.5a6 6 0 0 1-1.1.2c-.5 0-1 0-1.3-.2l-1-.7c-.1-.4-.3-.8-.3-1.3v-7.4Zm8.4 9.6a4 4 0 0 1-2-.4c-.6-.3-1-.8-1.3-1.4-.4-.6-.5-1.3-.5-2 0-.9.1-1.6.5-2.2.3-.5.7-1 1.2-1.3.6-.4 1.2-.5 2-.5.5 0 1 0 1.4.2a3.1 3.1 0 0 1 2 2l.2 1.6v.6H885v-1.3h4.5c0-.3 0-.6-.2-.8l-.6-.6-.8-.2a1.6 1.6 0 0 0-1.4.9l-.2.8v1.2c0 .4 0 .7.2 1 .1.3.3.5.6.6.3.2.6.3 1 .3l.6-.1.5-.3.3-.5 2 .1c-.2.5-.4.9-.7 1.2a3 3 0 0 1-1.2.9c-.4.2-1 .2-1.6.2Zm8.3 0a4 4 0 0 1-2-.4c-.6-.4-1-.8-1.3-1.4-.3-.6-.4-1.3-.4-2 0-.9.1-1.6.4-2.1.3-.6.8-1.1 1.3-1.4.6-.4 1.2-.5 2-.5a4 4 0 0 1 1.8.3c.5.3.9.6 1.1 1 .3.5.5 1 .5 1.6h-2c0-.4-.2-.7-.4-1-.3-.2-.6-.3-1-.3-.3 0-.6.1-.8.3-.3.2-.4.4-.6.8l-.2 1.2c0 .5 0 .9.2 1.2.1.4.3.6.6.8.2.2.5.3.8.3.3 0 .5 0 .7-.2.2 0 .4-.2.5-.4l.2-.7h2c0 .6-.2 1.1-.4 1.5-.3.5-.7.8-1.2 1-.5.3-1.1.4-1.8.4Zm8.8-7.7V75h-4.6v-1.6h4.6Zm-3.5-1.9h2.1v7.2l.1.4.2.2.4.1a1.8 1.8 0 0 0 .6 0l.3 1.5a6 6 0 0 1-1.2.2c-.5 0-1 0-1.3-.2-.4-.2-.7-.4-.9-.7-.2-.4-.3-.8-.3-1.3v-7.4Zm9.8 6.2v-4.3h2.1V81h-2v-1.4c-.2.5-.5.8-1 1-.3.4-.8.5-1.4.5-.5 0-1-.1-1.3-.3l-1-1c-.2-.5-.3-1-.3-1.6v-4.8h2.1v4.4c0 .5.2.9.4 1.1.2.3.6.4 1 .4.2 0 .5 0 .7-.2.2 0 .4-.3.5-.5.2-.2.2-.5.2-.9Zm3.8 3.3v-7.6h2v1.3h.2c.1-.5.3-.8.7-1 .3-.3.7-.4 1.1-.4a3.2 3.2 0 0 1 .7 0v2l-.4-.2h-.5c-.3 0-.6 0-.9.2a1.5 1.5 0 0 0-.7 1.4V81h-2.2Zm8.9.1a4 4 0 0 1-2-.4c-.6-.3-1-.8-1.3-1.4a4.5 4.5 0 0 1 0-4.2c.3-.5.7-1 1.2-1.3.6-.4 1.3-.5 2-.5.5 0 1 0 1.4.2a3.1 3.1 0 0 1 2 2l.2 1.6v.6H921v-1.3h4.5c0-.3 0-.6-.2-.8l-.5-.6-.9-.2c-.3 0-.6.1-.8.3-.3.1-.5.3-.6.6l-.2.8v1.2c0 .4 0 .7.2 1 .1.3.3.5.6.6.3.2.6.3 1 .3l.6-.1.5-.3.3-.5 2 .1c-.1.5-.4.9-.7 1.2a3 3 0 0 1-1.1.9c-.5.2-1 .2-1.7.2Z"/></g><defs><linearGradient id="b" x1=".3" x2="4.7" y1="0" y2="52.1" gradientUnits="userSpaceOnUse"><stop stop-color="#00FF29"/><stop offset="1" stop-color="#00FF29" stop-opacity="0"/></linearGradient><linearGradient id="c" x1="200.2" x2="197.5" y1="29" y2="4.6" gradientUnits="userSpaceOnUse"><stop stop-color="#00FF29" stop-opacity=".4"/><stop offset="1" stop-color="#00FF29" stop-opacity=".4"/></linearGradient><linearGradient id="d" x1="3.7" x2="6.8" y1=".3" y2="27.9" gradientUnits="userSpaceOnUse"><stop stop-color="#fff" stop-opacity=".6"/><stop offset="1" stop-color="#fff" stop-opacity="0"/></linearGradient><linearGradient id="g" x1="268" x2="272.5" y1="0" y2="52.1" gradientUnits="userSpaceOnUse"><stop stop-color="#00FF29"/><stop offset="1" stop-color="#00FF29" stop-opacity="0"/></linearGradient><linearGradient id="h" x1="468" x2="465.2" y1="29" y2="4.6" gradientUnits="userSpaceOnUse"><stop stop-color="#00FF29" stop-opacity=".4"/><stop offset="1" stop-color="#00FF29" stop-opacity=".4"/></linearGradient><linearGradient id="i" x1="271.5" x2="274.6" y1=".3" y2="27.9" gradientUnits="userSpaceOnUse"><stop stop-color="#fff" stop-opacity=".6"/><stop offset="1" stop-color="#fff" stop-opacity="0"/></linearGradient><linearGradient id="l" x1="472" x2="480.5" y1="0" y2="51.1" gradientUnits="userSpaceOnUse"><stop stop-color="#00FF29"/><stop offset="1" stop-color="#00FF29" stop-opacity="0"/></linearGradient><linearGradient id="m" x1="574.9" x2="569.7" y1="29" y2="5.4" gradientUnits="userSpaceOnUse"><stop stop-color="#00FF29" stop-opacity=".4"/><stop offset="1" stop-color="#00FF29" stop-opacity=".4"/></linearGradient><linearGradient id="n" x1="473.8" x2="479.6" y1=".3" y2="27" gradientUnits="userSpaceOnUse"><stop stop-color="#fff" stop-opacity=".6"/><stop offset="1" stop-color="#fff" stop-opacity="0"/></linearGradient><linearGradient id="q" x1="640" x2="644.9" y1="0" y2="52.1" gradientUnits="userSpaceOnUse"><stop stop-color="#00FF29"/><stop offset="1" stop-color="#00FF29" stop-opacity="0"/></linearGradient><linearGradient id="r" x1="823.5" x2="820.5" y1="29" y2="4.6" gradientUnits="userSpaceOnUse"><stop stop-color="#00FF29" stop-opacity=".4"/><stop offset="1" stop-color="#00FF29" stop-opacity=".4"/></linearGradient><linearGradient id="s" x1="643.2" x2="646.6" y1=".3" y2="27.8" gradientUnits="userSpaceOnUse"><stop stop-color="#fff" stop-opacity=".6"/><stop offset="1" stop-color="#fff" stop-opacity="0"/></linearGradient><linearGradient id="v" x1="1" x2="5.6" y1="61" y2="113.1" gradientUnits="userSpaceOnUse"><stop stop-color="#00FF29"/><stop offset="1" stop-color="#00FF29" stop-opacity="0"/></linearGradient><linearGradient id="w" x1="195" x2="192.2" y1="90" y2="65.6" gradientUnits="userSpaceOnUse"><stop stop-color="#00FF29" stop-opacity=".4"/><stop offset="1" stop-color="#00FF29" stop-opacity=".4"/></linearGradient><linearGradient id="x" x1="4.4" x2="7.6" y1="61.3" y2="88.9" gradientUnits="userSpaceOnUse"><stop stop-color="#fff" stop-opacity=".6"/><stop offset="1" stop-color="#fff" stop-opacity="0"/></linearGradient><linearGradient id="A" x1="278.5" x2="282.1" y1="61" y2="113.3" gradientUnits="userSpaceOnUse"><stop stop-color="#00FF29"/><stop offset="1" stop-color="#00FF29" stop-opacity="0"/></linearGradient><linearGradient id="B" x1="525.2" x2="523" y1="90" y2="65.5" gradientUnits="userSpaceOnUse"><stop stop-color="#00FF29" stop-opacity=".4"/><stop offset="1" stop-color="#00FF29" stop-opacity=".4"/></linearGradient><linearGradient id="C" x1="282.8" x2="285.3" y1="61.3" y2="89" gradientUnits="userSpaceOnUse"><stop stop-color="#fff" stop-opacity=".6"/><stop offset="1" stop-color="#fff" stop-opacity="0"/></linearGradient><linearGradient id="F" x1="540.5" x2="548.1" y1="61" y2="112.4" gradientUnits="userSpaceOnUse"><stop stop-color="#00FF29"/><stop offset="1" stop-color="#00FF29" stop-opacity="0"/></linearGradient><linearGradient id="G" x1="657.2" x2="652.6" y1="90" y2="66.1" gradientUnits="userSpaceOnUse"><stop stop-color="#00FF29" stop-opacity=".4"/><stop offset="1" stop-color="#00FF29" stop-opacity=".4"/></linearGradient><linearGradient id="H" x1="542.5" x2="547.7" y1="61.3" y2="88.3" gradientUnits="userSpaceOnUse"><stop stop-color="#fff" stop-opacity=".6"/><stop offset="1" stop-color="#fff" stop-opacity="0"/></linearGradient><linearGradient id="K" x1="743.1" x2="749.2" y1="61" y2="112.8" gradientUnits="userSpaceOnUse"><stop stop-color="#00FF29"/><stop offset="1" stop-color="#00FF29" stop-opacity="0"/></linearGradient><linearGradient id="L" x1="889.6" x2="885.9" y1="90" y2="65.8" gradientUnits="userSpaceOnUse"><stop stop-color="#00FF29" stop-opacity=".4"/><stop offset="1" stop-color="#00FF29" stop-opacity=".4"/></linearGradient><linearGradient id="M" x1="745.7" x2="749.9" y1="61.3" y2="88.6" gradientUnits="userSpaceOnUse"><stop stop-color="#fff" stop-opacity=".6"/><stop offset="1" stop-color="#fff" stop-opacity="0"/></linearGradient><clipPath id="a"><rect width="237" height="29" x=".4" fill="#fff" rx="14.5"/></clipPath><clipPath id="f"><rect width="172" height="29" x="268.3" fill="#fff" rx="14.5"/></clipPath><clipPath id="k"><rect width="136" height="29" x="472.3" fill="#fff" rx="14.5"/></clipPath><clipPath id="p"><rect width="232" height="29" x="640.3" fill="#fff" rx="14.5"/></clipPath><clipPath id="u"><rect width="245" height="29" x=".8" y="61" fill="#fff" rx="14.5"/></clipPath><clipPath id="z"><rect width="229" height="29" x="278.8" y="61" fill="#fff" rx="14.5"/></clipPath><clipPath id="E"><rect width="170" height="29" x="540.8" y="61" fill="#fff" rx="14.5"/></clipPath><clipPath id="J"><rect width="200" height="29" x="743.1" y="61" fill="#fff" rx="14.5"/></clipPath><filter id="e" width="59" height="59" x="-14.8" y="-15" color-interpolation-filters="sRGB" filterUnits="userSpaceOnUse"><feFlood flood-opacity="0" result="BackgroundImageFix"/><feBlend in="SourceGraphic" in2="BackgroundImageFix" result="shape"/><feGaussianBlur result="effect1_foregroundBlur_1044_1352" stdDeviation="7.5"/></filter><filter id="j" width="59" height="59" x="253" y="-15" color-interpolation-filters="sRGB" filterUnits="userSpaceOnUse"><feFlood flood-opacity="0" result="BackgroundImageFix"/><feBlend in="SourceGraphic" in2="BackgroundImageFix" result="shape"/><feGaussianBlur result="effect1_foregroundBlur_1044_1352" stdDeviation="7.5"/></filter><filter id="o" width="59" height="59" x="457" y="-15" color-interpolation-filters="sRGB" filterUnits="userSpaceOnUse"><feFlood flood-opacity="0" result="BackgroundImageFix"/><feBlend in="SourceGraphic" in2="BackgroundImageFix" result="shape"/><feGaussianBlur result="effect1_foregroundBlur_1044_1352" stdDeviation="7.5"/></filter><filter id="t" width="59" height="59" x="625" y="-15" color-interpolation-filters="sRGB" filterUnits="userSpaceOnUse"><feFlood flood-opacity="0" result="BackgroundImageFix"/><feBlend in="SourceGraphic" in2="BackgroundImageFix" result="shape"/><feGaussianBlur result="effect1_foregroundBlur_1044_1352" stdDeviation="7.5"/></filter><filter id="y" width="59" height="59" x="-14" y="46" color-interpolation-filters="sRGB" filterUnits="userSpaceOnUse"><feFlood flood-opacity="0" result="BackgroundImageFix"/><feBlend in="SourceGraphic" in2="BackgroundImageFix" result="shape"/><feGaussianBlur result="effect1_foregroundBlur_1044_1352" stdDeviation="7.5"/></filter><filter id="D" width="59" height="59" x="263.5" y="46" color-interpolation-filters="sRGB" filterUnits="userSpaceOnUse"><feFlood flood-opacity="0" result="BackgroundImageFix"/><feBlend in="SourceGraphic" in2="BackgroundImageFix" result="shape"/><feGaussianBlur result="effect1_foregroundBlur_1044_1352" stdDeviation="7.5"/></filter><filter id="I" width="59" height="59" x="525.5" y="46" color-interpolation-filters="sRGB" filterUnits="userSpaceOnUse"><feFlood flood-opacity="0" result="BackgroundImageFix"/><feBlend in="SourceGraphic" in2="BackgroundImageFix" result="shape"/><feGaussianBlur result="effect1_foregroundBlur_1044_1352" stdDeviation="7.5"/></filter><filter id="N" width="59" height="59" x="728.1" y="46" color-interpolation-filters="sRGB" filterUnits="userSpaceOnUse"><feFlood flood-opacity="0" result="BackgroundImageFix"/><feBlend in="SourceGraphic" in2="BackgroundImageFix" result="shape"/><feGaussianBlur result="effect1_foregroundBlur_1044_1352" stdDeviation="7.5"/></filter></defs></svg>