<svg id="eDq0TQ8IviZ1" xmlns="http://www.w3.org/2000/svg" xmlns:xlink="http://www.w3.org/1999/xlink" viewBox="0 0 191 36" shape-rendering="geometricPrecision" text-rendering="geometricPrecision" width="191" height="36">
<style><![CDATA[
#eDq0TQ8IviZ5_to {animation: eDq0TQ8IviZ5_to__to 3000ms linear 1 normal forwards}@keyframes eDq0TQ8IviZ5_to__to { 0% {transform: translate(11.8795px,23.024px);animation-timing-function: cubic-bezier(0,0,0.58,1)} 30% {transform: translate(33.4034px,23.024px)} 100% {transform: translate(33.4034px,23.024px)}}
]]></style>
<path d="M69.4915,19.5906c0,1.3841-.3203,2.6443-.9607,3.7805-.6404,1.1156-1.5907,2.0039-2.8509,2.665-1.2395.6611-2.7476.9916-4.5242.9916h-2.727v6.9723h-6.8793v-21.9395h9.6063c2.6856,0,4.7411.6817,6.1666,2.0452c1.4461,1.3635,2.1692,3.1918,2.1692,5.4849ZM60.381,21.6048c1.4254,0,2.1382-.6714,2.1382-2.0142s-.7128-2.0142-2.1382-2.0142h-1.9523v4.0284h1.9523Zm18.0168-9.5443v12.3642c0,1.0123.217,1.818.6508,2.4171.4545.5784,1.1775.8676,2.1691.8676.9917,0,1.725-.2892,2.2002-.8676.4751-.5991.7127-1.4048.7127-2.4171v-12.3642h6.8484v12.3642c0,2.0865-.4339,3.8735-1.3015,5.3609-.8677,1.4668-2.0556,2.572-3.5636,3.3157-1.5081.7438-3.1918,1.1156-5.0511,1.1156s-3.512-.3718-4.9581-1.1156c-1.4254-.7437-2.541-1.8489-3.3467-3.3157-.8057-1.4667-1.2085-3.2537-1.2085-5.3609v-12.3642h6.8483ZM100.825,28.794h6.632v5.206h-13.5109v-21.9395h6.8789v16.7335Zm17.38,5.4229c-2.623,0-4.792-.6094-6.507-1.8283-1.694-1.2395-2.613-3.0471-2.758-5.4229h7.313c.103,1.2602.661,1.8903,1.673,1.8903.372,0,.682-.0826.93-.2479.269-.1859.403-.4648.403-.8367c0-.5165-.279-.9296-.837-1.2395-.558-.3305-1.425-.7024-2.603-1.1156-1.405-.4958-2.572-.9813-3.501-1.4564-.909-.4752-1.694-1.1672-2.355-2.0762-.662-.909-.982-2.0762-.961-3.5017c0-1.4254.361-2.6339,1.084-3.6256.744-1.0122,1.746-1.7766,3.006-2.2931c1.281-.5164,2.717-.7747,4.308-.7747c2.685,0,4.813.6198,6.383,1.8593c1.591,1.2395,2.428,2.9852,2.51,5.237h-7.406c-.021-.6198-.176-1.0639-.465-1.3325s-.64-.4028-1.053-.4028c-.29,0-.527.1033-.713.3098-.186.186-.279.4545-.279.8057c0,.4958.269.909.806,1.2396.557.3098,1.435.692,2.634,1.1465c1.384.5165,2.52,1.0123,3.408,1.4874.909.4752,1.694,1.1363,2.355,1.9833.662.847.992,1.9109.992,3.1917c0,1.3428-.33,2.5514-.992,3.6256-.661,1.0536-1.621,1.88-2.881,2.4791-1.261.5991-2.758.8986-4.494.8986Zm17.509-22.1564v12.3642c0,1.0123.216,1.818.65,2.4171.455.5784,1.178.8676,2.169.8676.992,0,1.725-.2892,2.201-.8676.475-.5991.712-1.4048.712-2.4171v-12.3642h6.849v12.3642c0,2.0865-.434,3.8735-1.302,5.3609-.867,1.4668-2.055,2.572-3.563,3.3157-1.509.7438-3.192,1.1156-5.051,1.1156-1.86,0-3.512-.3718-4.959-1.1156-1.425-.7437-2.541-1.8489-3.346-3.3157-.806-1.4667-1.209-3.2537-1.209-5.3609v-12.3642h6.849Zm33.49,7.5301c0,1.3841-.32,2.6443-.961,3.7805-.64,1.1156-1.591,2.0039-2.851,2.665-1.239.6611-2.747.9916-4.524.9916h-2.727v6.9723h-6.879v-21.9395h9.606c2.686,0,4.741.6817,6.167,2.0452c1.446,1.3635,2.169,3.1918,2.169,5.4849Zm-9.111,2.0142c1.426,0,2.139-.6714,2.139-2.0142s-.713-2.0142-2.139-2.0142h-1.952v4.0284h1.952Z"/><path d="M174.09,17.89h2.3v1.11h-3.7v-6.98h1.4v5.87Zm7.94-5.87v1.13h-1.86v5.85h-1.4v-5.85h-1.86v-1.13h5.12Zm3.461,0c.734,0,1.377.1433,1.93.43.56.2867.99.6967,1.29,1.23.307.5267.46,1.14.46,1.84s-.153,1.3133-.46,1.84c-.3.52-.73.9233-1.29,1.21-.553.2867-1.196.43-1.93.43h-2.44v-6.98h2.44Zm-.05,5.79c.734,0,1.3-.2,1.7-.6s.6-.9633.6-1.69-.2-1.2933-.6-1.7c-.4-.4133-.966-.62-1.7-.62h-.99v4.61h.99Z"/><path d="M11.836,12.136h21.637c5.985,0,10.836,4.852,10.836,10.836c0,5.985-4.851,10.836-10.836,10.836h-21.637C5.851,33.808,1,28.957,1,22.972c0-5.984,4.851-10.836,10.836-10.836Z" clip-rule="evenodd" fill-rule="evenodd" stroke="#000" stroke-width="2"/><g id="eDq0TQ8IviZ5_to" transform="translate(11.8795,23.024)"><path d="M33.3599,12.188h.087c5.984,0,10.836,4.852,10.836,10.836c0,5.985-4.852,10.836-10.836,10.836h-.087c-5.984,0-10.836-4.851-10.836-10.836c0-5.984,4.852-10.836,10.836-10.836Z" transform="translate(-33.4034,-23.024)" clip-rule="evenodd" fill="#faeb45" fill-rule="evenodd" stroke="#000" stroke-width="2"/></g></svg>
